<svg width="77" height="16" viewBox="0 0 77 16" fill="none" xmlns="http://www.w3.org/2000/svg">
<path d="M39.4418 11.6921L39.7576 11.8759L40.0286 11.6309C40.2929 11.392 40.6295 11.2467 41 11.2467C41.7972 11.2467 42.4467 11.8961 42.4467 12.6933C42.4467 13.4905 41.7972 14.14 41 14.14C40.2028 14.14 39.5533 13.4905 39.5533 12.6933C39.5533 12.5914 39.5673 12.4839 39.5931 12.3758L39.6789 12.0152L39.3589 11.8283L34.6122 9.05494L34.2922 8.86797L34.0203 9.11977C33.7456 9.3741 33.3914 9.52665 33 9.52665C32.1695 9.52665 31.5 8.85718 31.5 8.02665C31.5 7.19613 32.1695 6.52665 33 6.52665C33.3914 6.52665 33.7456 6.67921 34.0203 6.93353L34.292 7.18508L34.6118 6.99861L39.3118 4.25861L39.6258 4.07557L39.5486 3.72044C39.5176 3.57804 39.5 3.46609 39.5 3.35999C39.5 2.52946 40.1695 1.85999 41 1.85999C41.8305 1.85999 42.5 2.52946 42.5 3.35999C42.5 4.19051 41.8305 4.85999 41 4.85999C40.6086 4.85999 40.2544 4.70743 39.9797 4.45311L39.708 4.20156L39.3882 4.38803L34.6882 7.12803L34.3742 7.31107L34.4514 7.6662C34.4824 7.8086 34.5 7.92055 34.5 8.02665C34.5 8.13275 34.4824 8.24471 34.4514 8.3871L34.3742 8.7425L34.6885 8.92545L39.4418 11.6921ZM42.1667 3.35999C42.1667 2.71718 41.6428 2.19332 41 2.19332C40.3572 2.19332 39.8333 2.71718 39.8333 3.35999C39.8333 4.00279 40.3572 4.52665 41 4.52665C41.6428 4.52665 42.1667 4.00279 42.1667 3.35999ZM31.8333 8.02665C31.8333 8.66946 32.3572 9.19332 33 9.19332C33.6428 9.19332 34.1667 8.66946 34.1667 8.02665C34.1667 7.38384 33.6428 6.85999 33 6.85999C32.3572 6.85999 31.8333 7.38384 31.8333 8.02665ZM39.8333 12.7067C39.8333 13.3495 40.3572 13.8733 41 13.8733C41.6428 13.8733 42.1667 13.3495 42.1667 12.7067C42.1667 12.0638 41.6428 11.54 41 11.54C40.3572 11.54 39.8333 12.0638 39.8333 12.7067Z" stroke="#9F9F9F"/>
<g clip-path="url(#clip0_1769_503)">
<path d="M62.1426 3.99988H75.8569H62.1426Z" fill="#2E9844"/>
<path d="M62.1426 3.99988H75.8569" stroke="#9F9F9F" stroke-width="1.71429" stroke-linecap="round" stroke-linejoin="round"/>
<path d="M63.8568 3.99988H74.1425V14.2856C74.1425 14.5887 74.0221 14.8794 73.8078 15.0937C73.5935 15.308 73.3028 15.4284 72.9997 15.4284H64.9997C64.6966 15.4284 64.4059 15.308 64.1915 15.0937C63.9772 14.8794 63.8568 14.5887 63.8568 14.2856V3.99988Z" stroke="#9F9F9F" stroke-width="1.71429" stroke-linecap="round" stroke-linejoin="round"/>
<path d="M66.1426 3.99986V3.42843C66.1426 2.67067 66.4436 1.94394 66.9794 1.40812C67.5152 0.872309 68.242 0.571289 68.9997 0.571289C69.7575 0.571289 70.4842 0.872309 71.02 1.40812C71.5558 1.94394 71.8569 2.67067 71.8569 3.42843V3.99986" stroke="#9F9F9F" stroke-width="1.71429" stroke-linecap="round" stroke-linejoin="round"/>
<path d="M67.2852 7.43005V12.0032" stroke="#9F9F9F" stroke-width="1.71429" stroke-linecap="round" stroke-linejoin="round"/>
<path d="M70.7142 7.43005V12.0032" stroke="#9F9F9F" stroke-width="1.71429" stroke-linecap="round" stroke-linejoin="round"/>
</g>
<defs>
<clipPath id="clip0_1769_503">
<rect width="16" height="16" fill="white" transform="translate(61)"/>
</clipPath>
</defs>
</svg>
