<svg width="20" height="16" viewBox="0 0 20 16" fill="none" xmlns="http://www.w3.org/2000/svg">
<path d="M11.7166 6.90829L9.99998 6.12496L11.7166 5.34163L12.5 3.62496L13.2833 5.34163L15 6.12496L13.2833 6.90829L12.5 8.62496L11.7166 6.90829ZM3.33331 10.2916L4.11665 8.57496L5.83331 7.79163L4.11665 7.00829L3.33331 5.29163L2.54998 7.00829L0.833313 7.79163L2.54998 8.57496L3.33331 10.2916ZM7.08331 6.12496L7.99165 4.11663L9.99998 3.20829L7.99165 2.29996L7.08331 0.291626L6.17498 2.29996L4.16665 3.20829L6.17498 4.11663L7.08331 6.12496ZM3.74998 15.7083L8.74998 10.7L12.0833 14.0333L19.1666 6.06663L17.9916 4.89163L12.0833 11.5333L8.74998 8.19996L2.49998 14.4583L3.74998 15.7083Z" fill="white"/>
</svg>
