<svg width="100" height="24" viewBox="0 0 100 24" fill="none" xmlns="http://www.w3.org/2000/svg">
<rect x="0.666748" y="0.5" width="99" height="23" rx="4" fill="#2E9844" fill-opacity="0.2"/>
<path d="M14.0281 15.5L13.3298 13.5176H10.6003L9.9021 15.5H8.66675L11.323 8.33203H12.6218L15.2732 15.5H14.0281ZM13.0271 12.5117L12.3484 10.5586C12.3223 10.474 12.2849 10.3551 12.2361 10.2021C12.1873 10.0459 12.1384 9.88802 12.0896 9.72852C12.0408 9.56576 12.0001 9.42904 11.9675 9.31836C11.935 9.45182 11.8943 9.60156 11.8455 9.76758C11.7999 9.93034 11.7543 10.0833 11.7087 10.2266C11.6664 10.3698 11.6339 10.4805 11.6111 10.5586L10.9275 12.5117H13.0271ZM18.2908 8.36133C19.212 8.36133 19.8842 8.55013 20.3074 8.92773C20.7306 9.30534 20.9421 9.83431 20.9421 10.5146C20.9421 10.8239 20.8933 11.1185 20.7957 11.3984C20.7013 11.6751 20.545 11.9209 20.3269 12.1357C20.1088 12.3473 19.8207 12.515 19.4626 12.6387C19.1078 12.7624 18.67 12.8242 18.1492 12.8242H17.3875V15.5H16.2156V8.36133H18.2908ZM18.2126 9.33301H17.3875V11.8477H18.0271C18.3949 11.8477 18.7074 11.8053 18.9646 11.7207C19.2218 11.6328 19.4171 11.4945 19.5505 11.3057C19.684 11.1169 19.7507 10.8678 19.7507 10.5586C19.7507 10.1452 19.6254 9.83757 19.3748 9.63574C19.1274 9.43392 18.74 9.33301 18.2126 9.33301ZM24.4431 8.36133C25.3643 8.36133 26.0365 8.55013 26.4597 8.92773C26.8829 9.30534 27.0945 9.83431 27.0945 10.5146C27.0945 10.8239 27.0457 11.1185 26.948 11.3984C26.8536 11.6751 26.6973 11.9209 26.4792 12.1357C26.2611 12.3473 25.9731 12.515 25.615 12.6387C25.2602 12.7624 24.8223 12.8242 24.3015 12.8242H23.5398V15.5H22.3679V8.36133H24.4431ZM24.365 9.33301H23.5398V11.8477H24.1794C24.5473 11.8477 24.8598 11.8053 25.1169 11.7207C25.3741 11.6328 25.5694 11.4945 25.7029 11.3057C25.8363 11.1169 25.9031 10.8678 25.9031 10.5586C25.9031 10.1452 25.7778 9.83757 25.5271 9.63574C25.2797 9.43392 24.8923 9.33301 24.365 9.33301ZM30.5271 8.36133C31.1423 8.36133 31.6501 8.4362 32.0505 8.58594C32.4542 8.73568 32.7537 8.96354 32.949 9.26953C33.1475 9.57552 33.2468 9.96452 33.2468 10.4365C33.2468 10.7881 33.1817 11.0876 33.0515 11.335C32.9213 11.5824 32.7504 11.7874 32.5388 11.9502C32.3272 12.113 32.101 12.2432 31.8601 12.3408L33.8865 15.5H32.5632L30.8396 12.6387H29.6921V15.5H28.5203V8.36133H30.5271ZM30.449 9.33789H29.6921V11.6719H30.5027C31.0463 11.6719 31.4402 11.571 31.6843 11.3691C31.9317 11.1673 32.0554 10.8695 32.0554 10.4756C32.0554 10.0622 31.9236 9.76921 31.6599 9.59668C31.3995 9.42415 30.9958 9.33789 30.449 9.33789ZM41.2449 11.9209C41.2449 12.471 41.1749 12.9723 41.0349 13.4248C40.8982 13.874 40.6915 14.2614 40.4148 14.5869C40.1381 14.9092 39.7914 15.1582 39.3748 15.334C38.9581 15.5098 38.4698 15.5977 37.9099 15.5977C37.3403 15.5977 36.8455 15.5098 36.4255 15.334C36.0089 15.1582 35.6622 14.9076 35.3855 14.582C35.1121 14.2565 34.907 13.8675 34.7703 13.415C34.6335 12.9626 34.5652 12.4613 34.5652 11.9111C34.5652 11.1755 34.6856 10.5342 34.9265 9.9873C35.1707 9.43717 35.5401 9.01074 36.0349 8.70801C36.533 8.40202 37.1612 8.24902 37.9197 8.24902C38.6619 8.24902 39.2787 8.40039 39.7703 8.70312C40.2618 9.00586 40.6296 9.43229 40.8738 9.98242C41.1212 10.5293 41.2449 11.1755 41.2449 11.9209ZM35.7957 11.9209C35.7957 12.471 35.8705 12.9479 36.0203 13.3516C36.17 13.752 36.3995 14.0612 36.7087 14.2793C37.0212 14.4941 37.4216 14.6016 37.9099 14.6016C38.4014 14.6016 38.8018 14.4941 39.1111 14.2793C39.4203 14.0612 39.6482 13.752 39.7947 13.3516C39.9412 12.9479 40.0144 12.471 40.0144 11.9209C40.0144 11.0843 39.8468 10.43 39.5115 9.95801C39.1794 9.48275 38.6488 9.24512 37.9197 9.24512C37.4314 9.24512 37.0294 9.35254 36.7136 9.56738C36.4011 9.78223 36.17 10.0898 36.0203 10.4902C35.8705 10.8874 35.7957 11.3643 35.7957 11.9209ZM48.071 8.36133L45.5759 15.5H44.3357L41.8406 8.36133H43.0417L44.5457 12.834C44.5912 12.9642 44.6401 13.1221 44.6921 13.3076C44.7475 13.4932 44.7979 13.6803 44.8435 13.8691C44.8923 14.0579 44.9298 14.2256 44.9558 14.3721C44.9819 14.2256 45.0177 14.0579 45.0632 13.8691C45.1121 13.6803 45.1625 13.4932 45.2146 13.3076C45.2667 13.1221 45.3155 12.9626 45.3611 12.8291L46.8699 8.36133H48.071ZM53.0515 15.5H49.0085V8.36133H53.0515V9.34766H50.1804V11.2861H52.8708V12.2676H50.1804V14.5088H53.0515V15.5ZM60.3904 11.8623C60.3904 12.6663 60.2406 13.3385 59.9412 13.8789C59.6417 14.416 59.2071 14.8213 58.6375 15.0947C58.0678 15.3649 57.3809 15.5 56.5769 15.5H54.5945V8.36133H56.7917C57.5307 8.36133 58.1687 8.49479 58.7058 8.76172C59.2429 9.02539 59.658 9.41764 59.9509 9.93848C60.2439 10.4561 60.3904 11.0973 60.3904 11.8623ZM59.1697 11.8965C59.1697 11.3105 59.0769 10.8288 58.8914 10.4512C58.7091 10.0736 58.4389 9.79362 58.0808 9.61133C57.726 9.42578 57.2882 9.33301 56.7673 9.33301H55.7664V14.5186H56.5964C57.4591 14.5186 58.1036 14.2988 58.53 13.8594C58.9565 13.4199 59.1697 12.7656 59.1697 11.8965ZM63.989 12.7607C63.989 12.2139 64.0411 11.68 64.1453 11.1592C64.2527 10.6383 64.4154 10.1419 64.6335 9.66992C64.8516 9.19792 65.1267 8.76172 65.4587 8.36133H66.4597C65.9942 8.98307 65.6427 9.67155 65.405 10.4268C65.1707 11.182 65.0535 11.9567 65.0535 12.751C65.0535 13.2686 65.1056 13.7812 65.2097 14.2891C65.3139 14.7969 65.4701 15.2852 65.6785 15.7539C65.8868 16.2259 66.144 16.6686 66.45 17.082H65.4587C65.1267 16.6914 64.8516 16.265 64.6335 15.8027C64.4154 15.3405 64.2527 14.8522 64.1453 14.3379C64.0411 13.8236 63.989 13.2979 63.989 12.7607ZM72.0457 15.5H67.2117V14.6357L69.0623 12.7607C69.4203 12.3962 69.7149 12.082 69.946 11.8184C70.1772 11.5514 70.3481 11.2992 70.4587 11.0615C70.5727 10.8239 70.6296 10.5651 70.6296 10.2852C70.6296 9.9401 70.5304 9.67969 70.3318 9.50391C70.1332 9.32487 69.8712 9.23535 69.5457 9.23535C69.2364 9.23535 68.95 9.2972 68.6863 9.4209C68.4259 9.54134 68.1557 9.71387 67.8757 9.93848L67.2458 9.18164C67.4444 9.01237 67.656 8.85775 67.8806 8.71777C68.1085 8.5778 68.3624 8.46712 68.6423 8.38574C68.9223 8.30111 69.2413 8.25879 69.5994 8.25879C70.0518 8.25879 70.4425 8.34017 70.7712 8.50293C71.1 8.66243 71.3523 8.88542 71.5281 9.17188C71.7071 9.45833 71.7966 9.79199 71.7966 10.1729C71.7966 10.557 71.7201 10.9118 71.5671 11.2373C71.4141 11.5628 71.196 11.8851 70.9128 12.2041C70.6296 12.5199 70.2927 12.8633 69.9021 13.2344L68.6667 14.4404V14.4941H72.0457V15.5ZM76.3083 8.36133L73.6472 15.5H72.573L75.2341 8.36133H76.3083ZM80.2146 15.5H79.0623V10.9053C79.0623 10.7523 79.0639 10.5993 79.0671 10.4463C79.0704 10.2933 79.0736 10.1436 79.0769 9.99707C79.0834 9.85059 79.0916 9.71061 79.1013 9.57715C79.033 9.65202 78.9483 9.7334 78.8474 9.82129C78.7498 9.90918 78.6456 10.0003 78.5349 10.0947L77.7146 10.749L77.1384 10.0215L79.2576 8.36133H80.2146V15.5ZM87.3972 15.5H82.5632V14.6357L84.4138 12.7607C84.7719 12.3962 85.0665 12.082 85.2976 11.8184C85.5287 11.5514 85.6996 11.2992 85.8103 11.0615C85.9242 10.8239 85.9812 10.5651 85.9812 10.2852C85.9812 9.9401 85.8819 9.67969 85.6833 9.50391C85.4848 9.32487 85.2227 9.23535 84.8972 9.23535C84.588 9.23535 84.3015 9.2972 84.0378 9.4209C83.7774 9.54134 83.5072 9.71387 83.2273 9.93848L82.5974 9.18164C82.796 9.01237 83.0076 8.85775 83.2322 8.71777C83.46 8.5778 83.7139 8.46712 83.9939 8.38574C84.2738 8.30111 84.5929 8.25879 84.9509 8.25879C85.4034 8.25879 85.794 8.34017 86.1228 8.50293C86.4516 8.66243 86.7039 8.88542 86.8796 9.17188C87.0587 9.45833 87.1482 9.79199 87.1482 10.1729C87.1482 10.557 87.0717 10.9118 86.9187 11.2373C86.7657 11.5628 86.5476 11.8851 86.2644 12.2041C85.9812 12.5199 85.6443 12.8633 85.2537 13.2344L84.0183 14.4404V14.4941H87.3972V15.5ZM90.6052 12.7559C90.6052 13.2962 90.5531 13.8236 90.449 14.3379C90.3448 14.8522 90.1837 15.3405 89.9656 15.8027C89.7507 16.265 89.474 16.6914 89.1355 17.082H88.1492C88.4552 16.6686 88.7123 16.2259 88.9207 15.7539C89.129 15.2819 89.2852 14.792 89.3894 14.2842C89.4936 13.7764 89.5457 13.2637 89.5457 12.7461C89.5457 12.2188 89.4919 11.6979 89.3845 11.1836C89.2804 10.6693 89.1241 10.1745 88.9158 9.69922C88.7074 9.2207 88.4486 8.77474 88.1394 8.36133H89.1355C89.474 8.76172 89.7507 9.19792 89.9656 9.66992C90.1837 10.1419 90.3448 10.6383 90.449 11.1592C90.5531 11.6768 90.6052 12.209 90.6052 12.7559Z" fill="#4FA556"/>
</svg>
