<svg width="68" height="24" viewBox="0 0 68 24" fill="none" xmlns="http://www.w3.org/2000/svg">
<rect y="0.5" width="68" height="23" rx="4" fill="#2E9844" fill-opacity="0.2"/>
<path d="M11.9795 9.25488C11.6377 9.25488 11.3317 9.31673 11.0615 9.44043C10.7946 9.56413 10.5684 9.74316 10.3828 9.97754C10.1973 10.2087 10.0557 10.4902 9.95801 10.8223C9.86035 11.151 9.81152 11.5221 9.81152 11.9355C9.81152 12.4889 9.88965 12.9658 10.0459 13.3662C10.2021 13.7633 10.4398 14.0693 10.7588 14.2842C11.0778 14.4958 11.4814 14.6016 11.9697 14.6016C12.2725 14.6016 12.5671 14.5723 12.8535 14.5137C13.14 14.4551 13.4362 14.3753 13.7422 14.2744V15.2705C13.4525 15.3844 13.1595 15.4674 12.8633 15.5195C12.5671 15.5716 12.2253 15.5977 11.8379 15.5977C11.1087 15.5977 10.5033 15.4463 10.0215 15.1436C9.54297 14.8408 9.1849 14.4144 8.94727 13.8643C8.71289 13.3141 8.5957 12.6696 8.5957 11.9307C8.5957 11.3903 8.67057 10.8955 8.82031 10.4463C8.97005 9.99707 9.18815 9.6097 9.47461 9.28418C9.76107 8.9554 10.1143 8.70312 10.5342 8.52734C10.9574 8.34831 11.4408 8.25879 11.9844 8.25879C12.3424 8.25879 12.694 8.29948 13.0391 8.38086C13.3874 8.45898 13.7096 8.57129 14.0059 8.71777L13.5957 9.68457C13.3483 9.56738 13.0895 9.46647 12.8193 9.38184C12.5492 9.2972 12.2692 9.25488 11.9795 9.25488ZM21.6133 11.9209C21.6133 12.471 21.5433 12.9723 21.4033 13.4248C21.2666 13.874 21.0599 14.2614 20.7832 14.5869C20.5065 14.9092 20.1598 15.1582 19.7432 15.334C19.3265 15.5098 18.8382 15.5977 18.2783 15.5977C17.7087 15.5977 17.2139 15.5098 16.7939 15.334C16.3773 15.1582 16.0306 14.9076 15.7539 14.582C15.4805 14.2565 15.2754 13.8675 15.1387 13.415C15.002 12.9626 14.9336 12.4613 14.9336 11.9111C14.9336 11.1755 15.054 10.5342 15.2949 9.9873C15.5391 9.43717 15.9085 9.01074 16.4033 8.70801C16.9014 8.40202 17.5296 8.24902 18.2881 8.24902C19.0303 8.24902 19.6471 8.40039 20.1387 8.70312C20.6302 9.00586 20.998 9.43229 21.2422 9.98242C21.4896 10.5293 21.6133 11.1755 21.6133 11.9209ZM16.1641 11.9209C16.1641 12.471 16.2389 12.9479 16.3887 13.3516C16.5384 13.752 16.7679 14.0612 17.0771 14.2793C17.3896 14.4941 17.79 14.6016 18.2783 14.6016C18.7699 14.6016 19.1702 14.4941 19.4795 14.2793C19.7887 14.0612 20.0166 13.752 20.1631 13.3516C20.3096 12.9479 20.3828 12.471 20.3828 11.9209C20.3828 11.0843 20.2152 10.43 19.8799 9.95801C19.5479 9.48275 19.0173 9.24512 18.2881 9.24512C17.7998 9.24512 17.3978 9.35254 17.082 9.56738C16.7695 9.78223 16.5384 10.0898 16.3887 10.4902C16.2389 10.8874 16.1641 11.3643 16.1641 11.9209ZM26.2275 15.5L24.1719 9.53809H24.1279C24.1377 9.67155 24.1491 9.85384 24.1621 10.085C24.1751 10.3161 24.1865 10.5635 24.1963 10.8271C24.2061 11.0908 24.2109 11.3431 24.2109 11.584V15.5H23.1465V8.36133H24.792L26.7695 14.0596H26.7988L28.8447 8.36133H30.4854V15.5H29.3672V11.5254C29.3672 11.3073 29.3704 11.0713 29.377 10.8174C29.3867 10.5635 29.3965 10.3226 29.4062 10.0947C29.4193 9.86686 29.429 9.68457 29.4355 9.54785H29.3965L27.2627 15.5H26.2275ZM34.4404 8.36133C35.3617 8.36133 36.0339 8.55013 36.457 8.92773C36.8802 9.30534 37.0918 9.83431 37.0918 10.5146C37.0918 10.8239 37.043 11.1185 36.9453 11.3984C36.8509 11.6751 36.6947 11.9209 36.4766 12.1357C36.2585 12.3473 35.9704 12.515 35.6123 12.6387C35.2575 12.7624 34.8197 12.8242 34.2988 12.8242H33.5371V15.5H32.3652V8.36133H34.4404ZM34.3623 9.33301H33.5371V11.8477H34.1768C34.5446 11.8477 34.8571 11.8053 35.1143 11.7207C35.3714 11.6328 35.5667 11.4945 35.7002 11.3057C35.8337 11.1169 35.9004 10.8678 35.9004 10.5586C35.9004 10.1452 35.7751 9.83757 35.5244 9.63574C35.277 9.43392 34.8896 9.33301 34.3623 9.33301ZM38.5176 15.5V8.36133H39.6895V14.5039H42.7217V15.5H38.5176ZM48 15.5H43.957V8.36133H48V9.34766H45.1289V11.2861H47.8193V12.2676H45.1289V14.5088H48V15.5ZM52.0186 15.5H50.8418V9.35742H48.752V8.36133H54.1035V9.35742H52.0186V15.5ZM59.2402 15.5H55.1973V8.36133H59.2402V9.34766H56.3691V11.2861H59.0596V12.2676H56.3691V14.5088H59.2402V15.5Z" fill="#4FA556"/>
</svg>
