<svg width="107" height="21" viewBox="0 0 107 21" fill="none" xmlns="http://www.w3.org/2000/svg">
<g clip-path="url(#clip0_1769_266)">
<path d="M1.33331 17.1667H14.6666M5.77776 7.53708H6.5185M5.77776 10.5H6.5185M5.77776 13.463H6.5185M9.48146 7.53708H10.2222M9.48146 10.5H10.2222M9.48146 13.463H10.2222M2.81479 17.1667V5.31486C2.81479 4.92194 2.97088 4.54512 3.24871 4.26729C3.52654 3.98946 3.90336 3.83337 4.29628 3.83337H11.7037C12.0966 3.83337 12.4734 3.98946 12.7512 4.26729C13.0291 4.54512 13.1852 4.92194 13.1852 5.31486V17.1667" stroke="#4FA556" stroke-width="1.5" stroke-linecap="round" stroke-linejoin="round"/>
<path d="M32.8677 10.771C32.8677 11.8162 32.6667 12.6901 32.2646 13.3926C31.8669 14.0908 31.2892 14.6177 30.5317 14.9731C29.7743 15.3244 28.8623 15.5 27.7959 15.5H25.168V6.21973H28.0815C29.0549 6.21973 29.8991 6.39323 30.6143 6.74023C31.3294 7.08301 31.8838 7.59294 32.2773 8.27002C32.6709 8.94287 32.8677 9.77653 32.8677 10.771ZM30.8237 10.8218C30.8237 10.1362 30.7222 9.5734 30.519 9.1333C30.3201 8.68896 30.0239 8.361 29.6304 8.14941C29.241 7.93783 28.7586 7.83203 28.1831 7.83203H27.1357V13.875H27.98C28.9406 13.875 29.6536 13.619 30.1191 13.1069C30.5889 12.5949 30.8237 11.8332 30.8237 10.8218ZM40.7322 15.5L40.0593 13.291H36.676L36.0032 15.5H33.883L37.1584 6.18164H39.5642L42.8523 15.5H40.7322ZM39.5896 11.6406L38.9167 9.48242C38.8744 9.33854 38.8173 9.15446 38.7454 8.93018C38.6776 8.70166 38.6078 8.47103 38.5359 8.23828C38.4682 8.0013 38.4132 7.79606 38.3708 7.62256C38.3285 7.79606 38.2693 8.01188 38.1931 8.27002C38.1212 8.52393 38.0513 8.76514 37.9836 8.99365C37.9159 9.22217 37.8673 9.38509 37.8376 9.48242L37.1711 11.6406H39.5896ZM47.8667 15.5H45.8989V7.85742H43.3789V6.21973H50.3867V7.85742H47.8667V15.5ZM57.7561 15.5L57.0832 13.291H53.6999L53.0271 15.5H50.907L54.1823 6.18164H56.5881L59.8762 15.5H57.7561ZM56.6135 11.6406L55.9406 9.48242C55.8983 9.33854 55.8412 9.15446 55.7693 8.93018C55.7016 8.70166 55.6317 8.47103 55.5598 8.23828C55.4921 8.0013 55.4371 7.79606 55.3947 7.62256C55.3524 7.79606 55.2932 8.01188 55.217 8.27002C55.1451 8.52393 55.0752 8.76514 55.0075 8.99365C54.9398 9.22217 54.8912 9.38509 54.8615 9.48242L54.195 11.6406H56.6135ZM70.2922 15.5H64.9475V6.21973H70.2922V7.83203H66.9152V9.86963H70.0573V11.4819H66.9152V13.875H70.2922V15.5ZM80.7275 15.5H78.2265L74.1894 8.47949H74.1323C74.1492 8.77148 74.164 9.06559 74.1767 9.36182C74.1894 9.65804 74.2021 9.95426 74.2148 10.2505C74.2275 10.5425 74.2402 10.8366 74.2529 11.1328V15.5H72.4946V6.21973H74.9765L79.0073 13.1704H79.0517C79.0432 12.8826 79.0327 12.597 79.02 12.3135C79.0073 12.0299 78.9946 11.7464 78.9819 11.4629C78.9734 11.1794 78.9649 10.8958 78.9565 10.6123V6.21973H80.7275V15.5ZM86.9098 15.5H84.9421V7.85742H82.4221V6.21973H89.4299V7.85742H86.9098V15.5ZM93.8222 6.21973C94.6643 6.21973 95.3583 6.32129 95.9042 6.52441C96.4544 6.72754 96.8627 7.03434 97.1293 7.44482C97.3959 7.85531 97.5292 8.3737 97.5292 9C97.5292 9.42318 97.4488 9.79346 97.288 10.1108C97.1272 10.4282 96.9156 10.6969 96.6532 10.917C96.3909 11.137 96.1073 11.3169 95.8027 11.4565L98.5322 15.5H96.3486L94.1332 11.939H93.0859V15.5H91.1181V6.21973H93.8222ZM93.6825 7.83203H93.0859V10.3394H93.7206C94.3723 10.3394 94.8378 10.2314 95.1171 10.0156C95.4006 9.79557 95.5424 9.47396 95.5424 9.05078C95.5424 8.61068 95.3901 8.29753 95.0854 8.11133C94.7849 7.92513 94.3173 7.83203 93.6825 7.83203ZM102.848 10.041L104.784 6.21973H106.904L103.826 11.8882V15.5H101.871V11.9517L98.7921 6.21973H100.925L102.848 10.041Z" fill="#4FA556"/>
</g>
<defs>
<clipPath id="clip0_1769_266">
<rect width="107" height="20" fill="white" transform="translate(0 0.5)"/>
</clipPath>
</defs>
</svg>
