<svg width="18" height="18" viewBox="0 0 18 18" fill="none" xmlns="http://www.w3.org/2000/svg">
<path d="M9.00002 0.666626C4.40002 0.666626 0.666687 4.39996 0.666687 8.99996C0.666687 13.6 4.40002 17.3333 9.00002 17.3333C13.6 17.3333 17.3334 13.6 17.3334 8.99996C17.3334 4.39996 13.6 0.666626 9.00002 0.666626ZM15.6084 8.16663H9.83335V2.39163C12.8417 2.76663 15.2334 5.15829 15.6084 8.16663ZM2.33335 8.99996C2.33335 5.60829 4.88335 2.79996 8.16669 2.39163V15.6083C4.88335 15.2 2.33335 12.3916 2.33335 8.99996ZM9.83335 15.6083V9.83329H15.6084C15.2334 12.8416 12.8417 15.2333 9.83335 15.6083Z" fill="#2E9844"/>
</svg>
