<svg width="128" height="24" viewBox="0 0 128 24" fill="none" xmlns="http://www.w3.org/2000/svg">
<circle cx="5.5" cy="12" r="5" fill="#ED6262"/>
<path d="M26.7188 18H25.3906V12.6172H19.3906V18H18.0625V6.57812H19.3906V11.4453H25.3906V6.57812H26.7188V18ZM30.9609 9.4375V18H29.6641V9.4375H30.9609ZM30.3281 6.23438C30.5417 6.23438 30.724 6.30469 30.875 6.44531C31.0312 6.58073 31.1094 6.79427 31.1094 7.08594C31.1094 7.3724 31.0312 7.58594 30.875 7.72656C30.724 7.86719 30.5417 7.9375 30.3281 7.9375C30.1042 7.9375 29.9167 7.86719 29.7656 7.72656C29.6198 7.58594 29.5469 7.3724 29.5469 7.08594C29.5469 6.79427 29.6198 6.58073 29.7656 6.44531C29.9167 6.30469 30.1042 6.23438 30.3281 6.23438ZM36.1016 21.8438C34.9766 21.8438 34.1094 21.6328 33.5 21.2109C32.8906 20.7943 32.5859 20.2083 32.5859 19.4531C32.5859 18.9167 32.7552 18.4583 33.0938 18.0781C33.4375 17.6979 33.9115 17.4453 34.5156 17.3203C34.2917 17.2161 34.099 17.0599 33.9375 16.8516C33.7812 16.6432 33.7031 16.4036 33.7031 16.1328C33.7031 15.8203 33.7891 15.5469 33.9609 15.3125C34.138 15.0729 34.4062 14.8438 34.7656 14.625C34.3177 14.4427 33.9531 14.1354 33.6719 13.7031C33.3958 13.2656 33.2578 12.7578 33.2578 12.1797C33.2578 11.5651 33.3854 11.0417 33.6406 10.6094C33.8958 10.1719 34.2656 9.83854 34.75 9.60938C35.2344 9.38021 35.8203 9.26562 36.5078 9.26562C36.6589 9.26562 36.8099 9.27344 36.9609 9.28906C37.1172 9.29948 37.2656 9.31771 37.4062 9.34375C37.5469 9.36458 37.6693 9.39062 37.7734 9.42188H40.7109V10.2578L39.1328 10.4531C39.2891 10.6562 39.4193 10.901 39.5234 11.1875C39.6276 11.474 39.6797 11.7917 39.6797 12.1406C39.6797 12.9948 39.3906 13.6745 38.8125 14.1797C38.2344 14.6797 37.4401 14.9297 36.4297 14.9297C36.1901 14.9297 35.9453 14.9089 35.6953 14.8672C35.4401 15.0078 35.2448 15.1641 35.1094 15.3359C34.9792 15.5078 34.9141 15.7057 34.9141 15.9297C34.9141 16.0964 34.9635 16.2292 35.0625 16.3281C35.1667 16.4271 35.3151 16.5 35.5078 16.5469C35.7005 16.5885 35.9323 16.6094 36.2031 16.6094H37.7109C38.6432 16.6094 39.3568 16.8047 39.8516 17.1953C40.3516 17.5859 40.6016 18.1562 40.6016 18.9062C40.6016 19.8542 40.2161 20.5807 39.4453 21.0859C38.6745 21.5911 37.5599 21.8438 36.1016 21.8438ZM36.1406 20.8281C36.849 20.8281 37.4349 20.7552 37.8984 20.6094C38.3672 20.4688 38.7161 20.263 38.9453 19.9922C39.1797 19.7266 39.2969 19.4089 39.2969 19.0391C39.2969 18.6953 39.2188 18.4349 39.0625 18.2578C38.9062 18.0859 38.6771 17.9714 38.375 17.9141C38.0729 17.8516 37.7031 17.8203 37.2656 17.8203H35.7812C35.3958 17.8203 35.0599 17.8802 34.7734 18C34.487 18.1198 34.2656 18.2969 34.1094 18.5312C33.9583 18.7656 33.8828 19.0573 33.8828 19.4062C33.8828 19.8698 34.0781 20.2214 34.4688 20.4609C34.8594 20.7057 35.4167 20.8281 36.1406 20.8281ZM36.4766 13.9844C37.0964 13.9844 37.5625 13.8281 37.875 13.5156C38.1875 13.2031 38.3438 12.7474 38.3438 12.1484C38.3438 11.5078 38.1849 11.0286 37.8672 10.7109C37.5495 10.388 37.0807 10.2266 36.4609 10.2266C35.8672 10.2266 35.4089 10.3932 35.0859 10.7266C34.7682 11.0547 34.6094 11.5365 34.6094 12.1719C34.6094 12.7552 34.7708 13.2031 35.0938 13.5156C35.4167 13.8281 35.8776 13.9844 36.4766 13.9844ZM43.6953 5.84375V9.47656C43.6953 9.6849 43.6901 9.89583 43.6797 10.1094C43.6693 10.3177 43.651 10.5104 43.625 10.6875H43.7109C43.888 10.3854 44.112 10.1328 44.3828 9.92969C44.6589 9.72135 44.9714 9.5651 45.3203 9.46094C45.6693 9.35156 46.0391 9.29688 46.4297 9.29688C47.1172 9.29688 47.6901 9.40625 48.1484 9.625C48.612 9.84375 48.9583 10.1823 49.1875 10.6406C49.4219 11.099 49.5391 11.6927 49.5391 12.4219V18H48.2578V12.5078C48.2578 11.7943 48.0938 11.2604 47.7656 10.9062C47.4427 10.5521 46.9453 10.375 46.2734 10.375C45.638 10.375 45.1302 10.4974 44.75 10.7422C44.375 10.9818 44.1042 11.3359 43.9375 11.8047C43.776 12.2734 43.6953 12.8464 43.6953 13.5234V18H42.3984V5.84375H43.6953Z" fill="#666666"/>
</svg>
