<svg width="110" height="24" viewBox="0 0 110 24" fill="none" xmlns="http://www.w3.org/2000/svg">
<rect x="0.666748" y="0.5" width="109" height="23" rx="4" fill="#F09948" fill-opacity="0.24"/>
<path d="M9.60425 15.5V8.36133H10.7761V15.5H9.60425ZM18.6179 15.5H17.1775L13.6814 9.80176H13.6375C13.6505 9.99382 13.6619 10.1973 13.6716 10.4121C13.6847 10.627 13.6944 10.8483 13.7009 11.0762C13.7107 11.304 13.7188 11.5352 13.7253 11.7695V15.5H12.6609V8.36133H14.0916L17.5828 14.0205H17.6169C17.6104 13.8545 17.6023 13.6641 17.5925 13.4492C17.5828 13.2344 17.573 13.013 17.5632 12.7852C17.5567 12.554 17.5518 12.3311 17.5486 12.1162V8.36133H18.6179V15.5ZM23.5349 9.25488C23.1931 9.25488 22.8871 9.31673 22.6169 9.44043C22.35 9.56413 22.1238 9.74316 21.9382 9.97754C21.7527 10.2087 21.6111 10.4902 21.5134 10.8223C21.4158 11.151 21.3669 11.5221 21.3669 11.9355C21.3669 12.4889 21.4451 12.9658 21.6013 13.3662C21.7576 13.7633 21.9952 14.0693 22.3142 14.2842C22.6332 14.4958 23.0369 14.6016 23.5251 14.6016C23.8279 14.6016 24.1225 14.5723 24.4089 14.5137C24.6954 14.4551 24.9916 14.3753 25.2976 14.2744V15.2705C25.0079 15.3844 24.7149 15.4674 24.4187 15.5195C24.1225 15.5716 23.7807 15.5977 23.3933 15.5977C22.6641 15.5977 22.0587 15.4463 21.5769 15.1436C21.0984 14.8408 20.7403 14.4144 20.5027 13.8643C20.2683 13.3141 20.1511 12.6696 20.1511 11.9307C20.1511 11.3903 20.226 10.8955 20.3757 10.4463C20.5255 9.99707 20.7436 9.6097 21.03 9.28418C21.3165 8.9554 21.6697 8.70312 22.0896 8.52734C22.5128 8.34831 22.9962 8.25879 23.5398 8.25879C23.8979 8.25879 24.2494 8.29948 24.5945 8.38086C24.9428 8.45898 25.2651 8.57129 25.5613 8.71777L25.1511 9.68457C24.9037 9.56738 24.6449 9.46647 24.3748 9.38184C24.1046 9.2972 23.8246 9.25488 23.5349 9.25488ZM33.1687 11.9209C33.1687 12.471 33.0987 12.9723 32.9587 13.4248C32.822 13.874 32.6153 14.2614 32.3386 14.5869C32.0619 14.9092 31.7153 15.1582 31.2986 15.334C30.8819 15.5098 30.3936 15.5977 29.8337 15.5977C29.2641 15.5977 28.7693 15.5098 28.3494 15.334C27.9327 15.1582 27.586 14.9076 27.3093 14.582C27.0359 14.2565 26.8308 13.8675 26.6941 13.415C26.5574 12.9626 26.489 12.4613 26.489 11.9111C26.489 11.1755 26.6095 10.5342 26.8503 9.9873C27.0945 9.43717 27.4639 9.01074 27.9587 8.70801C28.4568 8.40202 29.085 8.24902 29.8435 8.24902C30.5857 8.24902 31.2026 8.40039 31.6941 8.70312C32.1856 9.00586 32.5535 9.43229 32.7976 9.98242C33.045 10.5293 33.1687 11.1755 33.1687 11.9209ZM27.7195 11.9209C27.7195 12.471 27.7944 12.9479 27.9441 13.3516C28.0938 13.752 28.3233 14.0612 28.6326 14.2793C28.9451 14.4941 29.3455 14.6016 29.8337 14.6016C30.3253 14.6016 30.7257 14.4941 31.0349 14.2793C31.3442 14.0612 31.572 13.752 31.7185 13.3516C31.865 12.9479 31.9382 12.471 31.9382 11.9209C31.9382 11.0843 31.7706 10.43 31.4353 9.95801C31.1033 9.48275 30.5727 9.24512 29.8435 9.24512C29.3552 9.24512 28.9532 9.35254 28.6375 9.56738C28.325 9.78223 28.0938 10.0898 27.9441 10.4902C27.7944 10.8874 27.7195 11.3643 27.7195 11.9209ZM37.783 15.5L35.7273 9.53809H35.6833C35.6931 9.67155 35.7045 9.85384 35.7175 10.085C35.7306 10.3161 35.7419 10.5635 35.7517 10.8271C35.7615 11.0908 35.7664 11.3431 35.7664 11.584V15.5H34.7019V8.36133H36.3474L38.325 14.0596H38.3542L40.4001 8.36133H42.0408V15.5H40.9226V11.5254C40.9226 11.3073 40.9259 11.0713 40.9324 10.8174C40.9421 10.5635 40.9519 10.3226 40.9617 10.0947C40.9747 9.86686 40.9845 9.68457 40.991 9.54785H40.9519L38.8181 15.5H37.783ZM45.9958 8.36133C46.9171 8.36133 47.5893 8.55013 48.0125 8.92773C48.4356 9.30534 48.6472 9.83431 48.6472 10.5146C48.6472 10.8239 48.5984 11.1185 48.5007 11.3984C48.4063 11.6751 48.2501 11.9209 48.032 12.1357C47.8139 12.3473 47.5258 12.515 47.1677 12.6387C46.8129 12.7624 46.3751 12.8242 45.8542 12.8242H45.0925V15.5H43.9207V8.36133H45.9958ZM45.9177 9.33301H45.0925V11.8477H45.7322C46.1 11.8477 46.4125 11.8053 46.6697 11.7207C46.9268 11.6328 47.1222 11.4945 47.2556 11.3057C47.3891 11.1169 47.4558 10.8678 47.4558 10.5586C47.4558 10.1452 47.3305 9.83757 47.0798 9.63574C46.8324 9.43392 46.4451 9.33301 45.9177 9.33301ZM50.073 15.5V8.36133H51.2449V14.5039H54.2771V15.5H50.073ZM59.5554 15.5H55.5125V8.36133H59.5554V9.34766H56.6843V11.2861H59.3748V12.2676H56.6843V14.5088H59.5554V15.5ZM63.574 15.5H62.3972V9.35742H60.3074V8.36133H65.6589V9.35742H63.574V15.5ZM70.7957 15.5H66.7527V8.36133H70.7957V9.34766H67.9246V11.2861H70.615V12.2676H67.9246V14.5088H70.7957V15.5ZM74.3992 12.7607C74.3992 12.2139 74.4513 11.68 74.5554 11.1592C74.6628 10.6383 74.8256 10.1419 75.0437 9.66992C75.2618 9.19792 75.5369 8.76172 75.8689 8.36133H76.8699C76.4044 8.98307 76.0528 9.67155 75.8152 10.4268C75.5808 11.182 75.4636 11.9567 75.4636 12.751C75.4636 13.2686 75.5157 13.7812 75.6199 14.2891C75.724 14.7969 75.8803 15.2852 76.0886 15.7539C76.297 16.2259 76.5541 16.6686 76.8601 17.082H75.8689C75.5369 16.6914 75.2618 16.265 75.0437 15.8027C74.8256 15.3405 74.6628 14.8522 74.5554 14.3379C74.4513 13.8236 74.3992 13.2979 74.3992 12.7607ZM82.7146 13.9326H81.7478V15.5H80.615V13.9326H77.3679V13.0635L80.6296 8.3418H81.7478V12.9805H82.7146V13.9326ZM80.615 12.9805V11.208C80.615 11.0615 80.6166 10.9134 80.6199 10.7637C80.6264 10.6107 80.6329 10.4642 80.6394 10.3242C80.6459 10.1842 80.6524 10.0557 80.6589 9.93848C80.6654 9.81803 80.6703 9.71875 80.6736 9.64062H80.6345C80.5727 9.77083 80.5043 9.9043 80.4294 10.041C80.3546 10.1745 80.2748 10.3047 80.1902 10.4316L78.4324 12.9805H80.615ZM86.7185 8.36133L84.0574 15.5H82.9832L85.6443 8.36133H86.7185ZM90.6248 15.5H89.4724V10.9053C89.4724 10.7523 89.474 10.5993 89.4773 10.4463C89.4806 10.2933 89.4838 10.1436 89.4871 9.99707C89.4936 9.85059 89.5017 9.71061 89.5115 9.57715C89.4431 9.65202 89.3585 9.7334 89.2576 9.82129C89.1599 9.90918 89.0557 10.0003 88.9451 10.0947L88.1248 10.749L87.5486 10.0215L89.6677 8.36133H90.6248V15.5ZM97.8074 15.5H92.9734V14.6357L94.824 12.7607C95.182 12.3962 95.4766 12.082 95.7078 11.8184C95.9389 11.5514 96.1098 11.2992 96.2205 11.0615C96.3344 10.8239 96.3914 10.5651 96.3914 10.2852C96.3914 9.9401 96.2921 9.67969 96.0935 9.50391C95.8949 9.32487 95.6329 9.23535 95.3074 9.23535C94.9981 9.23535 94.7117 9.2972 94.448 9.4209C94.1876 9.54134 93.9174 9.71387 93.6375 9.93848L93.0076 9.18164C93.2061 9.01237 93.4177 8.85775 93.6423 8.71777C93.8702 8.5778 94.1241 8.46712 94.4041 8.38574C94.684 8.30111 95.003 8.25879 95.3611 8.25879C95.8136 8.25879 96.2042 8.34017 96.533 8.50293C96.8617 8.66243 97.114 8.88542 97.2898 9.17188C97.4688 9.45833 97.5583 9.79199 97.5583 10.1729C97.5583 10.557 97.4819 10.9118 97.3289 11.2373C97.1759 11.5628 96.9578 11.8851 96.6746 12.2041C96.3914 12.5199 96.0544 12.8633 95.6638 13.2344L94.4285 14.4404V14.4941H97.8074V15.5ZM101.015 12.7559C101.015 13.2962 100.963 13.8236 100.859 14.3379C100.755 14.8522 100.594 15.3405 100.376 15.8027C100.161 16.265 99.8842 16.6914 99.5457 17.082H98.5593C98.8653 16.6686 99.1225 16.2259 99.3308 15.7539C99.5391 15.2819 99.6954 14.792 99.7996 14.2842C99.9037 13.7764 99.9558 13.2637 99.9558 12.7461C99.9558 12.2188 99.9021 11.6979 99.7947 11.1836C99.6905 10.6693 99.5343 10.1745 99.3259 9.69922C99.1176 9.2207 98.8588 8.77474 98.5496 8.36133H99.5457C99.8842 8.76172 100.161 9.19792 100.376 9.66992C100.594 10.1419 100.755 10.6383 100.859 11.1592C100.963 11.6768 101.015 12.209 101.015 12.7559Z" fill="#F09948"/>
</svg>
