<svg width="128" height="24" viewBox="0 0 128 24" fill="none" xmlns="http://www.w3.org/2000/svg">
<circle cx="5.5" cy="12" r="5" fill="#2E9844"/>
<path d="M18.0625 18V6.57812H19.3906V16.8125H24.4609V18H18.0625ZM33.6094 13.7031C33.6094 14.4062 33.5182 15.0339 33.3359 15.5859C33.1536 16.138 32.8906 16.6042 32.5469 16.9844C32.2031 17.3646 31.7865 17.6562 31.2969 17.8594C30.8125 18.0573 30.263 18.1562 29.6484 18.1562C29.0755 18.1562 28.5495 18.0573 28.0703 17.8594C27.5964 17.6562 27.1849 17.3646 26.8359 16.9844C26.4922 16.6042 26.224 16.138 26.0312 15.5859C25.8438 15.0339 25.75 14.4062 25.75 13.7031C25.75 12.7656 25.9089 11.9688 26.2266 11.3125C26.5443 10.651 26.9974 10.1484 27.5859 9.80469C28.1797 9.45573 28.8854 9.28125 29.7031 9.28125C30.4844 9.28125 31.1667 9.45573 31.75 9.80469C32.3385 10.1536 32.7943 10.6589 33.1172 11.3203C33.4453 11.9766 33.6094 12.7708 33.6094 13.7031ZM27.0938 13.7031C27.0938 14.3906 27.1849 14.987 27.3672 15.4922C27.5495 15.9974 27.8307 16.388 28.2109 16.6641C28.5911 16.9401 29.0807 17.0781 29.6797 17.0781C30.2734 17.0781 30.7604 16.9401 31.1406 16.6641C31.526 16.388 31.8099 15.9974 31.9922 15.4922C32.1745 14.987 32.2656 14.3906 32.2656 13.7031C32.2656 13.0208 32.1745 12.4323 31.9922 11.9375C31.8099 11.4375 31.5286 11.0521 31.1484 10.7812C30.7682 10.5104 30.276 10.375 29.6719 10.375C28.7812 10.375 28.1276 10.6693 27.7109 11.2578C27.2995 11.8464 27.0938 12.6615 27.0938 13.7031ZM42.8203 17.9844L41.2969 13C41.2292 12.7865 41.1641 12.5781 41.1016 12.375C41.0443 12.1667 40.9896 11.9688 40.9375 11.7812C40.8906 11.5885 40.8464 11.4115 40.8047 11.25C40.7682 11.0833 40.737 10.9401 40.7109 10.8203H40.6562C40.6354 10.9401 40.6068 11.0833 40.5703 11.25C40.5339 11.4115 40.4896 11.5885 40.4375 11.7812C40.3906 11.974 40.3385 12.1771 40.2812 12.3906C40.224 12.599 40.1589 12.8099 40.0859 13.0234L38.4922 17.9844H37.0312L34.6719 9.42188H36.0156L37.25 14.1484C37.3333 14.4609 37.4115 14.7708 37.4844 15.0781C37.5625 15.3802 37.6276 15.6667 37.6797 15.9375C37.737 16.2031 37.7786 16.4349 37.8047 16.6328H37.8672C37.8984 16.5026 37.9323 16.3464 37.9688 16.1641C38.0104 15.9818 38.0547 15.7891 38.1016 15.5859C38.1536 15.3776 38.2083 15.1719 38.2656 14.9688C38.3229 14.7604 38.3802 14.5651 38.4375 14.3828L40.0156 9.42188H41.4141L42.9375 14.375C43.0156 14.625 43.0911 14.8854 43.1641 15.1562C43.2422 15.4271 43.3125 15.6901 43.375 15.9453C43.4375 16.1953 43.4818 16.4193 43.5078 16.6172H43.5703C43.5911 16.4401 43.6302 16.2214 43.6875 15.9609C43.7448 15.7005 43.8099 15.4141 43.8828 15.1016C43.9609 14.7891 44.0417 14.4714 44.125 14.1484L45.375 9.42188H46.6953L44.3281 17.9844H42.8203Z" fill="#666666"/>
</svg>
