<svg width="128" height="24" viewBox="0 0 128 24" fill="none" xmlns="http://www.w3.org/2000/svg">
<circle cx="5.5" cy="12" r="5" fill="#F09948"/>
<path d="M23.0859 18L19.25 7.89062H19.1875C19.2083 8.10417 19.2266 8.36458 19.2422 8.67188C19.2578 8.97917 19.2708 9.3151 19.2812 9.67969C19.2917 10.0391 19.2969 10.4062 19.2969 10.7812V18H18.0625V6.57812H20.0312L23.6484 16.0781H23.7031L27.375 6.57812H29.3281V18H28.0156V10.6875C28.0156 10.349 28.0208 10.0104 28.0312 9.67188C28.0417 9.32812 28.0547 9.00521 28.0703 8.70312C28.0859 8.39583 28.1016 8.13021 28.1172 7.90625H28.0547L24.1719 18H23.0859ZM35.5547 9.28125C36.2839 9.28125 36.9089 9.44271 37.4297 9.76562C37.9505 10.0885 38.349 10.5417 38.625 11.125C38.901 11.7031 39.0391 12.3802 39.0391 13.1562V13.9609H33.125C33.1406 14.9661 33.3906 15.7318 33.875 16.2578C34.3594 16.7839 35.0417 17.0469 35.9219 17.0469C36.4635 17.0469 36.9427 16.9974 37.3594 16.8984C37.776 16.7995 38.2083 16.6536 38.6562 16.4609V17.6016C38.224 17.7943 37.7943 17.9349 37.3672 18.0234C36.9453 18.112 36.4453 18.1562 35.8672 18.1562C35.0443 18.1562 34.3255 17.9896 33.7109 17.6562C33.1016 17.3177 32.6276 16.8229 32.2891 16.1719C31.9505 15.5208 31.7812 14.724 31.7812 13.7812C31.7812 12.8594 31.9349 12.0625 32.2422 11.3906C32.5547 10.7135 32.9922 10.1927 33.5547 9.82812C34.1224 9.46354 34.7891 9.28125 35.5547 9.28125ZM35.5391 10.3438C34.8464 10.3438 34.2943 10.5703 33.8828 11.0234C33.4714 11.4766 33.2266 12.1094 33.1484 12.9219H37.6797C37.6745 12.4115 37.5938 11.9635 37.4375 11.5781C37.2865 11.1875 37.0547 10.8854 36.7422 10.6719C36.4297 10.4531 36.0286 10.3438 35.5391 10.3438ZM44.2891 18.1562C43.2057 18.1562 42.3464 17.7865 41.7109 17.0469C41.0807 16.3073 40.7656 15.2083 40.7656 13.75C40.7656 12.276 41.0885 11.1641 41.7344 10.4141C42.3802 9.65885 43.2396 9.28125 44.3125 9.28125C44.7656 9.28125 45.1615 9.34115 45.5 9.46094C45.8385 9.58073 46.1302 9.74219 46.375 9.94531C46.6198 10.1432 46.8255 10.3698 46.9922 10.625H47.0859C47.0651 10.4635 47.0443 10.2422 47.0234 9.96094C47.0026 9.67969 46.9922 9.45052 46.9922 9.27344V5.84375H48.2891V18H47.2422L47.0469 16.7812H46.9922C46.8307 17.0365 46.625 17.2682 46.375 17.4766C46.1302 17.6849 45.8359 17.8516 45.4922 17.9766C45.1536 18.0964 44.7526 18.1562 44.2891 18.1562ZM44.4922 17.0781C45.4089 17.0781 46.0573 16.8177 46.4375 16.2969C46.8177 15.776 47.0078 15.0026 47.0078 13.9766V13.7422C47.0078 12.6536 46.8255 11.8177 46.4609 11.2344C46.1016 10.651 45.4453 10.3594 44.4922 10.3594C43.6953 10.3594 43.099 10.6667 42.7031 11.2812C42.3073 11.8906 42.1094 12.724 42.1094 13.7812C42.1094 14.8333 42.3047 15.6458 42.6953 16.2188C43.0911 16.7917 43.6901 17.0781 44.4922 17.0781ZM52.3359 9.4375V18H51.0391V9.4375H52.3359ZM51.7031 6.23438C51.9167 6.23438 52.099 6.30469 52.25 6.44531C52.4062 6.58073 52.4844 6.79427 52.4844 7.08594C52.4844 7.3724 52.4062 7.58594 52.25 7.72656C52.099 7.86719 51.9167 7.9375 51.7031 7.9375C51.4792 7.9375 51.2917 7.86719 51.1406 7.72656C50.9948 7.58594 50.9219 7.3724 50.9219 7.08594C50.9219 6.79427 50.9948 6.58073 51.1406 6.44531C51.2917 6.30469 51.4792 6.23438 51.7031 6.23438ZM62.1562 9.4375V18H61.0938L60.9062 16.7969H60.8359C60.6589 17.0938 60.4297 17.3438 60.1484 17.5469C59.8672 17.75 59.5495 17.901 59.1953 18C58.8464 18.1042 58.474 18.1562 58.0781 18.1562C57.401 18.1562 56.8333 18.0469 56.375 17.8281C55.9167 17.6094 55.5703 17.2708 55.3359 16.8125C55.1068 16.3542 54.9922 15.7656 54.9922 15.0469V9.4375H56.3047V14.9531C56.3047 15.6667 56.4661 16.2005 56.7891 16.5547C57.112 16.9036 57.6042 17.0781 58.2656 17.0781C58.901 17.0781 59.4062 16.9583 59.7812 16.7188C60.1615 16.4792 60.4349 16.1276 60.6016 15.6641C60.7682 15.1953 60.8516 14.6224 60.8516 13.9453V9.4375H62.1562ZM74.1953 9.28125C75.138 9.28125 75.849 9.52865 76.3281 10.0234C76.8073 10.513 77.0469 11.3021 77.0469 12.3906V18H75.7656V12.4531C75.7656 11.7604 75.6146 11.2422 75.3125 10.8984C75.0156 10.5495 74.5729 10.375 73.9844 10.375C73.1562 10.375 72.5547 10.6146 72.1797 11.0938C71.8047 11.5729 71.6172 12.2786 71.6172 13.2109V18H70.3281V12.4531C70.3281 11.9896 70.2604 11.6042 70.125 11.2969C69.9948 10.9896 69.7969 10.7604 69.5312 10.6094C69.2708 10.4531 68.9401 10.375 68.5391 10.375C67.9714 10.375 67.5156 10.4922 67.1719 10.7266C66.8281 10.9609 66.5781 11.3099 66.4219 11.7734C66.2708 12.2318 66.1953 12.7969 66.1953 13.4688V18H64.8984V9.4375H65.9453L66.1406 10.6484H66.2109C66.3828 10.3516 66.599 10.1016 66.8594 9.89844C67.1198 9.69531 67.4115 9.54167 67.7344 9.4375C68.0573 9.33333 68.401 9.28125 68.7656 9.28125C69.4167 9.28125 69.9609 9.40365 70.3984 9.64844C70.8411 9.88802 71.1615 10.2552 71.3594 10.75H71.4297C71.7109 10.2552 72.0964 9.88802 72.5859 9.64844C73.0755 9.40365 73.612 9.28125 74.1953 9.28125Z" fill="#666666"/>
</svg>
