<svg width="147" height="24" viewBox="0 0 147 24" fill="none" xmlns="http://www.w3.org/2000/svg">
<rect x="0.666748" y="0.5" width="146" height="23" rx="4" fill="#F04F6D" fill-opacity="0.2"/>
<path d="M11.6794 8.36133C12.6007 8.36133 13.2729 8.55013 13.696 8.92773C14.1192 9.30534 14.3308 9.83431 14.3308 10.5146C14.3308 10.8239 14.282 11.1185 14.1843 11.3984C14.0899 11.6751 13.9337 11.9209 13.7156 12.1357C13.4975 12.3473 13.2094 12.515 12.8513 12.6387C12.4965 12.7624 12.0587 12.8242 11.5378 12.8242H10.7761V15.5H9.60425V8.36133H11.6794ZM11.6013 9.33301H10.7761V11.8477H11.4158C11.7836 11.8477 12.0961 11.8053 12.3533 11.7207C12.6104 11.6328 12.8057 11.4945 12.9392 11.3057C13.0727 11.1169 13.1394 10.8678 13.1394 10.5586C13.1394 10.1452 13.0141 9.83757 12.7634 9.63574C12.516 9.43392 12.1287 9.33301 11.6013 9.33301ZM19.7996 15.5H15.7566V8.36133H19.7996V9.34766H16.9285V11.2861H19.6189V12.2676H16.9285V14.5088H19.7996V15.5ZM27.2996 15.5H25.8591L22.363 9.80176H22.3191C22.3321 9.99382 22.3435 10.1973 22.3533 10.4121C22.3663 10.627 22.3761 10.8483 22.3826 11.0762C22.3923 11.304 22.4005 11.5352 22.407 11.7695V15.5H21.3425V8.36133H22.7732L26.2644 14.0205H26.2986C26.2921 13.8545 26.2839 13.6641 26.2742 13.4492C26.2644 13.2344 26.2546 13.013 26.2449 12.7852C26.2384 12.554 26.2335 12.3311 26.2302 12.1162V8.36133H27.2996V15.5ZM34.9705 11.8623C34.9705 12.6663 34.8207 13.3385 34.5212 13.8789C34.2218 14.416 33.7872 14.8213 33.2175 15.0947C32.6479 15.3649 31.961 15.5 31.157 15.5H29.1746V8.36133H31.3718C32.1108 8.36133 32.7488 8.49479 33.2859 8.76172C33.823 9.02539 34.238 9.41764 34.531 9.93848C34.824 10.4561 34.9705 11.0973 34.9705 11.8623ZM33.7498 11.8965C33.7498 11.3105 33.657 10.8288 33.4714 10.4512C33.2891 10.0736 33.019 9.79362 32.6609 9.61133C32.3061 9.42578 31.8682 9.33301 31.3474 9.33301H30.3464V14.5186H31.1765C32.0391 14.5186 32.6837 14.2988 33.1101 13.8594C33.5365 13.4199 33.7498 12.7656 33.7498 11.8965ZM36.5085 15.5V8.36133H37.6804V15.5H36.5085ZM45.5222 15.5H44.0818L40.5857 9.80176H40.5417C40.5548 9.99382 40.5662 10.1973 40.5759 10.4121C40.5889 10.627 40.5987 10.8483 40.6052 11.0762C40.615 11.304 40.6231 11.5352 40.6296 11.7695V15.5H39.5652V8.36133H40.9958L44.4871 14.0205H44.5212C44.5147 13.8545 44.5066 13.6641 44.4968 13.4492C44.4871 13.2344 44.4773 13.013 44.4675 12.7852C44.461 12.554 44.4561 12.3311 44.4529 12.1162V8.36133H45.5222V15.5ZM50.2781 11.623H52.9441V15.207C52.5697 15.3307 52.1824 15.4268 51.782 15.4951C51.3816 15.5635 50.9324 15.5977 50.4343 15.5977C49.7084 15.5977 49.0932 15.4544 48.5886 15.168C48.0873 14.8783 47.7065 14.46 47.446 13.9131C47.1856 13.363 47.0554 12.7005 47.0554 11.9258C47.0554 11.1803 47.2003 10.5342 47.49 9.9873C47.7797 9.43717 48.2013 9.01237 48.7546 8.71289C49.308 8.41016 49.9786 8.25879 50.7664 8.25879C51.1537 8.25879 51.5281 8.29785 51.8894 8.37598C52.254 8.45085 52.5876 8.55501 52.8904 8.68848L52.4802 9.65527C52.2393 9.54134 51.9692 9.44531 51.6697 9.36719C51.3702 9.28906 51.0593 9.25 50.7371 9.25C50.226 9.25 49.7849 9.36068 49.4138 9.58203C49.046 9.80339 48.7628 10.1159 48.5642 10.5195C48.3656 10.9199 48.2664 11.3936 48.2664 11.9404C48.2664 12.471 48.3461 12.9365 48.5056 13.3369C48.6651 13.7373 48.9141 14.0498 49.2527 14.2744C49.5945 14.4958 50.0356 14.6064 50.5759 14.6064C50.8461 14.6064 51.0756 14.5918 51.2644 14.5625C51.4532 14.5332 51.6274 14.5007 51.7869 14.4648V12.624H50.2781V11.623ZM61.6746 15.5L60.9763 13.5176H58.2468L57.5486 15.5H56.3132L58.9695 8.33203H60.2683L62.9197 15.5H61.6746ZM60.6736 12.5117L59.9949 10.5586C59.9688 10.474 59.9314 10.3551 59.8826 10.2021C59.8337 10.0459 59.7849 9.88802 59.7361 9.72852C59.6873 9.56576 59.6466 9.42904 59.614 9.31836C59.5815 9.45182 59.5408 9.60156 59.4919 9.76758C59.4464 9.93034 59.4008 10.0833 59.3552 10.2266C59.3129 10.3698 59.2804 10.4805 59.2576 10.5586L58.574 12.5117H60.6736ZM65.9373 8.36133C66.8585 8.36133 67.5307 8.55013 67.9539 8.92773C68.377 9.30534 68.5886 9.83431 68.5886 10.5146C68.5886 10.8239 68.5398 11.1185 68.4421 11.3984C68.3477 11.6751 68.1915 11.9209 67.9734 12.1357C67.7553 12.3473 67.4672 12.515 67.1091 12.6387C66.7543 12.7624 66.3165 12.8242 65.7957 12.8242H65.0339V15.5H63.8621V8.36133H65.9373ZM65.8591 9.33301H65.0339V11.8477H65.6736C66.0414 11.8477 66.3539 11.8053 66.6111 11.7207C66.8682 11.6328 67.0636 11.4945 67.197 11.3057C67.3305 11.1169 67.3972 10.8678 67.3972 10.5586C67.3972 10.1452 67.2719 9.83757 67.0212 9.63574C66.7738 9.43392 66.3865 9.33301 65.8591 9.33301ZM72.0896 8.36133C73.0108 8.36133 73.683 8.55013 74.1062 8.92773C74.5294 9.30534 74.741 9.83431 74.741 10.5146C74.741 10.8239 74.6921 11.1185 74.5945 11.3984C74.5001 11.6751 74.3438 11.9209 74.1257 12.1357C73.9076 12.3473 73.6195 12.515 73.2615 12.6387C72.9067 12.7624 72.4688 12.8242 71.948 12.8242H71.1863V15.5H70.0144V8.36133H72.0896ZM72.0115 9.33301H71.1863V11.8477H71.8259C72.1938 11.8477 72.5063 11.8053 72.7634 11.7207C73.0206 11.6328 73.2159 11.4945 73.3494 11.3057C73.4828 11.1169 73.5496 10.8678 73.5496 10.5586C73.5496 10.1452 73.4242 9.83757 73.1736 9.63574C72.9262 9.43392 72.5388 9.33301 72.0115 9.33301ZM78.1736 8.36133C78.7888 8.36133 79.2966 8.4362 79.697 8.58594C80.1007 8.73568 80.4001 8.96354 80.5955 9.26953C80.794 9.57552 80.8933 9.96452 80.8933 10.4365C80.8933 10.7881 80.8282 11.0876 80.698 11.335C80.5678 11.5824 80.3969 11.7874 80.1853 11.9502C79.9737 12.113 79.7475 12.2432 79.5066 12.3408L81.533 15.5H80.2097L78.4861 12.6387H77.3386V15.5H76.1667V8.36133H78.1736ZM78.0955 9.33789H77.3386V11.6719H78.1492C78.6928 11.6719 79.0867 11.571 79.3308 11.3691C79.5782 11.1673 79.7019 10.8695 79.7019 10.4756C79.7019 10.0622 79.5701 9.76921 79.3064 9.59668C79.046 9.42415 78.6423 9.33789 78.0955 9.33789ZM88.8914 11.9209C88.8914 12.471 88.8214 12.9723 88.6814 13.4248C88.5447 13.874 88.338 14.2614 88.0613 14.5869C87.7846 14.9092 87.4379 15.1582 87.0212 15.334C86.6046 15.5098 86.1163 15.5977 85.5564 15.5977C84.9867 15.5977 84.4919 15.5098 84.072 15.334C83.6554 15.1582 83.3087 14.9076 83.032 14.582C82.7585 14.2565 82.5535 13.8675 82.4167 13.415C82.28 12.9626 82.2117 12.4613 82.2117 11.9111C82.2117 11.1755 82.3321 10.5342 82.573 9.9873C82.8171 9.43717 83.1866 9.01074 83.6814 8.70801C84.1794 8.40202 84.8077 8.24902 85.5662 8.24902C86.3083 8.24902 86.9252 8.40039 87.4167 8.70312C87.9083 9.00586 88.2761 9.43229 88.5203 9.98242C88.7677 10.5293 88.8914 11.1755 88.8914 11.9209ZM83.4421 11.9209C83.4421 12.471 83.517 12.9479 83.6667 13.3516C83.8165 13.752 84.046 14.0612 84.3552 14.2793C84.6677 14.4941 85.0681 14.6016 85.5564 14.6016C86.0479 14.6016 86.4483 14.4941 86.7576 14.2793C87.0668 14.0612 87.2947 13.752 87.4412 13.3516C87.5876 12.9479 87.6609 12.471 87.6609 11.9209C87.6609 11.0843 87.4932 10.43 87.158 9.95801C86.8259 9.48275 86.2953 9.24512 85.5662 9.24512C85.0779 9.24512 84.6759 9.35254 84.3601 9.56738C84.0476 9.78223 83.8165 10.0898 83.6667 10.4902C83.517 10.8874 83.4421 11.3643 83.4421 11.9209ZM95.7175 8.36133L93.2224 15.5H91.9822L89.4871 8.36133H90.6882L92.1921 12.834C92.2377 12.9642 92.2865 13.1221 92.3386 13.3076C92.394 13.4932 92.4444 13.6803 92.49 13.8691C92.5388 14.0579 92.5763 14.2256 92.6023 14.3721C92.6283 14.2256 92.6641 14.0579 92.7097 13.8691C92.7585 13.6803 92.809 13.4932 92.8611 13.3076C92.9132 13.1221 92.962 12.9626 93.0076 12.8291L94.5164 8.36133H95.7175ZM101.079 15.5L100.381 13.5176H97.6511L96.9529 15.5H95.7175L98.3738 8.33203H99.6726L102.324 15.5H101.079ZM100.078 12.5117L99.3992 10.5586C99.3731 10.474 99.3357 10.3551 99.2869 10.2021C99.238 10.0459 99.1892 9.88802 99.1404 9.72852C99.0916 9.56576 99.0509 9.42904 99.0183 9.31836C98.9858 9.45182 98.9451 9.60156 98.8962 9.76758C98.8507 9.93034 98.8051 10.0833 98.7595 10.2266C98.7172 10.3698 98.6847 10.4805 98.6619 10.5586L97.9783 12.5117H100.078ZM103.266 15.5V8.36133H104.438V14.5039H107.47V15.5H103.266ZM110.766 12.7607C110.766 12.2139 110.818 11.68 110.923 11.1592C111.03 10.6383 111.193 10.1419 111.411 9.66992C111.629 9.19792 111.904 8.76172 112.236 8.36133H113.237C112.772 8.98307 112.42 9.67155 112.182 10.4268C111.948 11.182 111.831 11.9567 111.831 12.751C111.831 13.2686 111.883 13.7812 111.987 14.2891C112.091 14.7969 112.247 15.2852 112.456 15.7539C112.664 16.2259 112.921 16.6686 113.227 17.082H112.236C111.904 16.6914 111.629 16.265 111.411 15.8027C111.193 15.3405 111.03 14.8522 110.923 14.3379C110.818 13.8236 110.766 13.2979 110.766 12.7607ZM117.363 15.5H116.211V10.9053C116.211 10.7523 116.212 10.5993 116.216 10.4463C116.219 10.2933 116.222 10.1436 116.225 9.99707C116.232 9.85059 116.24 9.71061 116.25 9.57715C116.181 9.65202 116.097 9.7334 115.996 9.82129C115.898 9.90918 115.794 10.0003 115.683 10.0947L114.863 10.749L114.287 10.0215L116.406 8.36133H117.363V15.5ZM123.086 8.36133L120.425 15.5H119.35L122.011 8.36133H123.086ZM126.992 15.5H125.84V10.9053C125.84 10.7523 125.841 10.5993 125.844 10.4463C125.848 10.2933 125.851 10.1436 125.854 9.99707C125.861 9.85059 125.869 9.71061 125.879 9.57715C125.81 9.65202 125.726 9.7334 125.625 9.82129C125.527 9.90918 125.423 10.0003 125.312 10.0947L124.492 10.749L123.916 10.0215L126.035 8.36133H126.992V15.5ZM134.175 15.5H129.341V14.6357L131.191 12.7607C131.549 12.3962 131.844 12.082 132.075 11.8184C132.306 11.5514 132.477 11.2992 132.588 11.0615C132.702 10.8239 132.759 10.5651 132.759 10.2852C132.759 9.9401 132.659 9.67969 132.461 9.50391C132.262 9.32487 132 9.23535 131.675 9.23535C131.365 9.23535 131.079 9.2972 130.815 9.4209C130.555 9.54134 130.285 9.71387 130.005 9.93848L129.375 9.18164C129.573 9.01237 129.785 8.85775 130.01 8.71777C130.237 8.5778 130.491 8.46712 130.771 8.38574C131.051 8.30111 131.37 8.25879 131.728 8.25879C132.181 8.25879 132.571 8.34017 132.9 8.50293C133.229 8.66243 133.481 8.88542 133.657 9.17188C133.836 9.45833 133.926 9.79199 133.926 10.1729C133.926 10.557 133.849 10.9118 133.696 11.2373C133.543 11.5628 133.325 11.8851 133.042 12.2041C132.759 12.5199 132.422 12.8633 132.031 13.2344L130.796 14.4404V14.4941H134.175V15.5ZM137.383 12.7559C137.383 13.2962 137.33 13.8236 137.226 14.3379C137.122 14.8522 136.961 15.3405 136.743 15.8027C136.528 16.265 136.251 16.6914 135.913 17.082H134.927C135.233 16.6686 135.49 16.2259 135.698 15.7539C135.906 15.2819 136.063 14.792 136.167 14.2842C136.271 13.7764 136.323 13.2637 136.323 12.7461C136.323 12.2188 136.269 11.6979 136.162 11.1836C136.058 10.6693 135.901 10.1745 135.693 9.69922C135.485 9.2207 135.226 8.77474 134.917 8.36133H135.913C136.251 8.76172 136.528 9.19792 136.743 9.66992C136.961 10.1419 137.122 10.6383 137.226 11.1592C137.33 11.6768 137.383 12.209 137.383 12.7559Z" fill="#F04F6D"/>
</svg>
