<svg width="149" height="61" viewBox="0 0 149 61" fill="none" xmlns="http://www.w3.org/2000/svg">
<path opacity="0.5" d="M3.0127 3.86133C3.93392 3.86133 4.60612 4.05013 5.0293 4.42773C5.45247 4.80534 5.66406 5.33431 5.66406 6.01465C5.66406 6.32389 5.61523 6.61849 5.51758 6.89844C5.42318 7.17513 5.26693 7.4209 5.04883 7.63574C4.83073 7.84733 4.54264 8.01497 4.18457 8.13867C3.82975 8.26237 3.39193 8.32422 2.87109 8.32422H2.10938V11H0.9375V3.86133H3.0127ZM2.93457 4.83301H2.10938V7.34766H2.74902C3.11686 7.34766 3.42936 7.30534 3.68652 7.2207C3.94368 7.13281 4.139 6.99447 4.27246 6.80566C4.40592 6.61686 4.47266 6.36784 4.47266 6.05859C4.47266 5.64518 4.34733 5.33757 4.09668 5.13574C3.84928 4.93392 3.46191 4.83301 2.93457 4.83301ZM11.1328 11H7.08984V3.86133H11.1328V4.84766H8.26172V6.78613H10.9521V7.76758H8.26172V10.0088H11.1328V11ZM18.6328 11H17.1924L13.6963 5.30176H13.6523C13.6654 5.49382 13.6768 5.69727 13.6865 5.91211C13.6995 6.12695 13.7093 6.34831 13.7158 6.57617C13.7256 6.80404 13.7337 7.03516 13.7402 7.26953V11H12.6758V3.86133H14.1064L17.5977 9.52051H17.6318C17.6253 9.35449 17.6172 9.16406 17.6074 8.94922C17.5977 8.73438 17.5879 8.51302 17.5781 8.28516C17.5716 8.05404 17.5667 7.83105 17.5635 7.61621V3.86133H18.6328V11ZM26.3037 7.3623C26.3037 8.16634 26.154 8.83854 25.8545 9.37891C25.555 9.91602 25.1204 10.3213 24.5508 10.5947C23.9811 10.8649 23.2943 11 22.4902 11H20.5078V3.86133H22.7051C23.444 3.86133 24.082 3.99479 24.6191 4.26172C25.1562 4.52539 25.5713 4.91764 25.8643 5.43848C26.1572 5.95605 26.3037 6.59733 26.3037 7.3623ZM25.083 7.39648C25.083 6.81055 24.9902 6.32878 24.8047 5.95117C24.6224 5.57357 24.3522 5.29362 23.9941 5.11133C23.6393 4.92578 23.2015 4.83301 22.6807 4.83301H21.6797V10.0186H22.5098C23.3724 10.0186 24.0169 9.79883 24.4434 9.35938C24.8698 8.91992 25.083 8.26562 25.083 7.39648ZM27.8418 11V3.86133H29.0137V11H27.8418ZM36.8555 11H35.415L31.9189 5.30176H31.875C31.888 5.49382 31.8994 5.69727 31.9092 5.91211C31.9222 6.12695 31.932 6.34831 31.9385 6.57617C31.9482 6.80404 31.9564 7.03516 31.9629 7.26953V11H30.8984V3.86133H32.3291L35.8203 9.52051H35.8545C35.848 9.35449 35.8398 9.16406 35.8301 8.94922C35.8203 8.73438 35.8105 8.51302 35.8008 8.28516C35.7943 8.05404 35.7894 7.83105 35.7861 7.61621V3.86133H36.8555V11ZM41.6113 7.12305H44.2773V10.707C43.903 10.8307 43.5156 10.9268 43.1152 10.9951C42.7148 11.0635 42.2656 11.0977 41.7676 11.0977C41.0417 11.0977 40.4264 10.9544 39.9219 10.668C39.4206 10.3783 39.0397 9.95996 38.7793 9.41309C38.5189 8.86296 38.3887 8.20052 38.3887 7.42578C38.3887 6.68034 38.5335 6.03418 38.8232 5.4873C39.113 4.93717 39.5345 4.51237 40.0879 4.21289C40.6413 3.91016 41.3118 3.75879 42.0996 3.75879C42.487 3.75879 42.8613 3.79785 43.2227 3.87598C43.5872 3.95085 43.9209 4.05501 44.2236 4.18848L43.8135 5.15527C43.5726 5.04134 43.3024 4.94531 43.0029 4.86719C42.7035 4.78906 42.3926 4.75 42.0703 4.75C41.5592 4.75 41.1182 4.86068 40.7471 5.08203C40.3792 5.30339 40.096 5.61589 39.8975 6.01953C39.6989 6.41992 39.5996 6.89355 39.5996 7.44043C39.5996 7.97103 39.6794 8.43652 39.8389 8.83691C39.9984 9.2373 40.2474 9.5498 40.5859 9.77441C40.9277 9.99577 41.3688 10.1064 41.9092 10.1064C42.1794 10.1064 42.4089 10.0918 42.5977 10.0625C42.7865 10.0332 42.9606 10.0007 43.1201 9.96484V8.12402H41.6113V7.12305ZM51.0596 11H49.8828V4.85742H47.793V3.86133H53.1445V4.85742H51.0596V11ZM56.2451 3.86133C56.8604 3.86133 57.3682 3.9362 57.7686 4.08594C58.1722 4.23568 58.4717 4.46354 58.667 4.76953C58.8656 5.07552 58.9648 5.46452 58.9648 5.93652C58.9648 6.28809 58.8997 6.58757 58.7695 6.83496C58.6393 7.08236 58.4684 7.28743 58.2568 7.4502C58.0452 7.61296 57.819 7.74316 57.5781 7.84082L59.6045 11H58.2812L56.5576 8.13867H55.4102V11H54.2383V3.86133H56.2451ZM56.167 4.83789H55.4102V7.17188H56.2207C56.7643 7.17188 57.1582 7.07096 57.4023 6.86914C57.6497 6.66732 57.7734 6.36947 57.7734 5.97559C57.7734 5.56217 57.6416 5.26921 57.3779 5.09668C57.1175 4.92415 56.7139 4.83789 56.167 4.83789ZM65.0488 11L64.3506 9.01758H61.6211L60.9229 11H59.6875L62.3438 3.83203H63.6426L66.2939 11H65.0488ZM64.0479 8.01172L63.3691 6.05859C63.3431 5.97396 63.3057 5.85514 63.2568 5.70215C63.208 5.5459 63.1592 5.38802 63.1104 5.22852C63.0615 5.06576 63.0208 4.92904 62.9883 4.81836C62.9557 4.95182 62.915 5.10156 62.8662 5.26758C62.8206 5.43034 62.7751 5.58333 62.7295 5.72656C62.6872 5.86979 62.6546 5.98047 62.6318 6.05859L61.9482 8.01172H64.0479ZM70.2783 4.75488C69.9365 4.75488 69.6305 4.81673 69.3604 4.94043C69.0934 5.06413 68.8672 5.24316 68.6816 5.47754C68.4961 5.70866 68.3545 5.99023 68.2568 6.32227C68.1592 6.65104 68.1104 7.02214 68.1104 7.43555C68.1104 7.98893 68.1885 8.46582 68.3447 8.86621C68.501 9.26335 68.7386 9.56934 69.0576 9.78418C69.3766 9.99577 69.7803 10.1016 70.2686 10.1016C70.5713 10.1016 70.8659 10.0723 71.1523 10.0137C71.4388 9.95508 71.735 9.87533 72.041 9.77441V10.7705C71.7513 10.8844 71.4583 10.9674 71.1621 11.0195C70.8659 11.0716 70.5241 11.0977 70.1367 11.0977C69.4076 11.0977 68.8021 10.9463 68.3203 10.6436C67.8418 10.3408 67.4837 9.91439 67.2461 9.36426C67.0117 8.81413 66.8945 8.1696 66.8945 7.43066C66.8945 6.8903 66.9694 6.39551 67.1191 5.94629C67.2689 5.49707 67.487 5.1097 67.7734 4.78418C68.0599 4.4554 68.4131 4.20312 68.833 4.02734C69.2562 3.84831 69.7396 3.75879 70.2832 3.75879C70.6413 3.75879 70.9928 3.79948 71.3379 3.88086C71.6862 3.95898 72.0085 4.07129 72.3047 4.21777L71.8945 5.18457C71.6471 5.06738 71.3883 4.96647 71.1182 4.88184C70.848 4.7972 70.568 4.75488 70.2783 4.75488ZM79.0186 11H77.6709L75.4492 7.75781L74.7461 8.3291V11H73.5742V3.86133H74.7461V7.27441C74.8893 7.09863 75.0342 6.92285 75.1807 6.74707C75.3271 6.57129 75.4736 6.39551 75.6201 6.21973L77.6318 3.86133H78.9551L76.2891 6.98633L79.0186 11ZM84.0039 11H79.9609V3.86133H84.0039V4.84766H81.1328V6.78613H83.8232V7.76758H81.1328V10.0088H84.0039V11ZM87.5537 3.86133C88.1689 3.86133 88.6768 3.9362 89.0771 4.08594C89.4808 4.23568 89.7803 4.46354 89.9756 4.76953C90.1742 5.07552 90.2734 5.46452 90.2734 5.93652C90.2734 6.28809 90.2083 6.58757 90.0781 6.83496C89.9479 7.08236 89.777 7.28743 89.5654 7.4502C89.3538 7.61296 89.1276 7.74316 88.8867 7.84082L90.9131 11H89.5898L87.8662 8.13867H86.7188V11H85.5469V3.86133H87.5537ZM87.4756 4.83789H86.7188V7.17188H87.5293C88.0729 7.17188 88.4668 7.07096 88.7109 6.86914C88.9583 6.66732 89.082 6.36947 89.082 5.97559C89.082 5.56217 88.9502 5.26921 88.6865 5.09668C88.4261 4.92415 88.0225 4.83789 87.4756 4.83789ZM96.0547 9.05664C96.0547 9.47982 95.9505 9.8444 95.7422 10.1504C95.5371 10.4564 95.2409 10.6908 94.8535 10.8535C94.4694 11.0163 94.0104 11.0977 93.4766 11.0977C93.2161 11.0977 92.9671 11.083 92.7295 11.0537C92.4919 11.0244 92.2673 10.9821 92.0557 10.9268C91.8473 10.8682 91.6569 10.7982 91.4844 10.7168V9.61328C91.7741 9.74023 92.098 9.85579 92.4561 9.95996C92.8141 10.0609 93.1787 10.1113 93.5498 10.1113C93.8525 10.1113 94.1032 10.0723 94.3018 9.99414C94.5036 9.91276 94.6533 9.79883 94.751 9.65234C94.8486 9.5026 94.8975 9.32845 94.8975 9.12988C94.8975 8.91829 94.8405 8.73926 94.7266 8.59277C94.6126 8.44629 94.4401 8.31283 94.209 8.19238C93.9811 8.06868 93.6947 7.93685 93.3496 7.79688C93.1152 7.70247 92.8906 7.59505 92.6758 7.47461C92.4642 7.35417 92.2754 7.21257 92.1094 7.0498C91.9434 6.88704 91.8115 6.69499 91.7139 6.47363C91.6195 6.24902 91.5723 5.98535 91.5723 5.68262C91.5723 5.27897 91.6683 4.93392 91.8604 4.64746C92.0557 4.361 92.3291 4.14128 92.6807 3.98828C93.0355 3.83529 93.4489 3.75879 93.9209 3.75879C94.2952 3.75879 94.6468 3.79785 94.9756 3.87598C95.3076 3.9541 95.6331 4.06478 95.9521 4.20801L95.5811 5.15039C95.2881 5.02995 95.0033 4.93392 94.7266 4.8623C94.4531 4.79069 94.1732 4.75488 93.8867 4.75488C93.6393 4.75488 93.4294 4.79232 93.2568 4.86719C93.0843 4.94206 92.9525 5.04785 92.8613 5.18457C92.7734 5.31803 92.7295 5.47754 92.7295 5.66309C92.7295 5.87142 92.7799 6.0472 92.8809 6.19043C92.985 6.3304 93.1445 6.45898 93.3594 6.57617C93.5775 6.69336 93.8574 6.82357 94.1992 6.9668C94.5931 7.12956 94.9268 7.30046 95.2002 7.47949C95.4769 7.65853 95.6885 7.87337 95.835 8.12402C95.9814 8.37142 96.0547 8.68229 96.0547 9.05664Z" fill="#101010"/>
<path d="M15.5176 46.6113H12.8105V51H9.63867V46.6113H0.546875V44.1777L9.67969 30.957H12.8105V43.9453H15.5176V46.6113ZM9.63867 43.9453V38.9824C9.63867 38.5723 9.64323 38.1576 9.65234 37.7383C9.67057 37.3099 9.6888 36.8997 9.70703 36.5078C9.72526 36.1159 9.74349 35.7559 9.76172 35.4277C9.77995 35.0905 9.79362 34.8125 9.80273 34.5938H9.69336C9.52018 34.9583 9.32878 35.332 9.11914 35.7148C8.90951 36.0885 8.6862 36.4531 8.44922 36.8086L3.52734 43.9453H9.63867ZM24.0762 38.5039C25.3613 38.5039 26.4915 38.7363 27.4668 39.2012C28.4512 39.6569 29.2168 40.3314 29.7637 41.2246C30.3105 42.1087 30.584 43.1934 30.584 44.4785C30.584 45.8822 30.2878 47.0944 29.6953 48.1152C29.1029 49.127 28.2324 49.9062 27.084 50.4531C25.9355 51 24.5365 51.2734 22.8867 51.2734C21.8385 51.2734 20.8587 51.1823 19.9473 51C19.0449 50.8177 18.2656 50.5443 17.6094 50.1797V47.2812C18.293 47.6641 19.1133 47.9785 20.0703 48.2246C21.0273 48.4616 21.9434 48.5801 22.8184 48.5801C23.748 48.5801 24.5456 48.4434 25.2109 48.1699C25.8763 47.8965 26.3867 47.4772 26.7422 46.9121C27.1068 46.347 27.2891 45.6315 27.2891 44.7656C27.2891 43.6172 26.9199 42.7331 26.1816 42.1133C25.4525 41.4844 24.3086 41.1699 22.75 41.1699C22.2031 41.1699 21.6198 41.2201 21 41.3203C20.3893 41.4115 19.8789 41.5117 19.4688 41.6211L18.0605 40.7871L18.8125 31.0117H29.2031V33.8418H21.6426L21.2051 38.8184C21.5332 38.7454 21.9251 38.6771 22.3809 38.6133C22.8366 38.5404 23.4017 38.5039 24.0762 38.5039ZM42.752 31.0117L35.3008 51H32.293L39.7441 31.0117H42.752ZM44.2695 42.4824C44.2695 41.3066 44.3516 40.1491 44.5156 39.0098C44.6888 37.8704 44.9805 36.804 45.3906 35.8105C45.8008 34.8171 46.3659 33.9421 47.0859 33.1855C47.8151 32.429 48.7311 31.8366 49.834 31.4082C50.9368 30.9707 52.263 30.752 53.8125 30.752C54.2135 30.752 54.6647 30.7702 55.166 30.8066C55.6673 30.8431 56.082 30.9023 56.4102 30.9844V33.6504C56.0547 33.5501 55.6628 33.4727 55.2344 33.418C54.8151 33.3633 54.3958 33.3359 53.9766 33.3359C52.2995 33.3359 50.9915 33.6549 50.0527 34.293C49.1139 34.9219 48.444 35.7878 48.043 36.8906C47.6419 37.9844 47.4095 39.2376 47.3457 40.6504H47.5098C47.7832 40.1947 48.125 39.7891 48.5352 39.4336C48.9453 39.0781 49.4466 38.7956 50.0391 38.5859C50.6315 38.3672 51.3197 38.2578 52.1035 38.2578C53.2702 38.2578 54.2865 38.5039 55.1523 38.9961C56.0182 39.4792 56.6836 40.181 57.1484 41.1016C57.6224 42.0221 57.8594 43.1387 57.8594 44.4512C57.8594 45.8639 57.5905 47.0807 57.0527 48.1016C56.5241 49.1224 55.7676 49.9062 54.7832 50.4531C53.8079 51 52.6458 51.2734 51.2969 51.2734C50.3034 51.2734 49.3783 51.0911 48.5215 50.7266C47.6738 50.362 46.931 49.8151 46.293 49.0859C45.6549 48.3568 45.1582 47.4453 44.8027 46.3516C44.4473 45.2487 44.2695 43.959 44.2695 42.4824ZM51.2422 48.6211C52.2812 48.6211 53.1152 48.2839 53.7441 47.6094C54.3822 46.9258 54.7012 45.8822 54.7012 44.4785C54.7012 43.3392 54.4186 42.4368 53.8535 41.7715C53.2975 41.1061 52.459 40.7734 51.3379 40.7734C50.5723 40.7734 49.9023 40.9375 49.3281 41.2656C48.7539 41.5938 48.3073 42.0085 47.9883 42.5098C47.6784 43.0111 47.5234 43.5215 47.5234 44.041C47.5234 44.5697 47.6009 45.1029 47.7559 45.6406C47.9108 46.1784 48.1432 46.6751 48.4531 47.1309C48.763 47.5775 49.1504 47.9375 49.6152 48.2109C50.0801 48.4844 50.6224 48.6211 51.2422 48.6211ZM73.8008 40.9922C73.8008 42.6055 73.6732 44.0501 73.418 45.3262C73.1719 46.5931 72.7799 47.6686 72.2422 48.5527C71.7044 49.4368 71.0026 50.1113 70.1367 50.5762C69.2708 51.041 68.2227 51.2734 66.9922 51.2734C65.4518 51.2734 64.1803 50.8678 63.1777 50.0566C62.1751 49.2363 61.4323 48.0605 60.9492 46.5293C60.4661 44.9889 60.2246 43.1432 60.2246 40.9922C60.2246 38.8411 60.4434 37 60.8809 35.4688C61.3275 33.9284 62.0475 32.748 63.041 31.9277C64.0345 31.1074 65.3516 30.6973 66.9922 30.6973C68.5417 30.6973 69.8177 31.1074 70.8203 31.9277C71.832 32.7389 72.5794 33.9147 73.0625 35.4551C73.5547 36.9863 73.8008 38.832 73.8008 40.9922ZM63.4648 40.9922C63.4648 42.6784 63.5742 44.0866 63.793 45.2168C64.0208 46.347 64.3945 47.1947 64.9141 47.7598C65.4336 48.3158 66.1263 48.5938 66.9922 48.5938C67.8581 48.5938 68.5508 48.3158 69.0703 47.7598C69.5898 47.2038 69.9635 46.3607 70.1914 45.2305C70.4284 44.1003 70.5469 42.6875 70.5469 40.9922C70.5469 39.3151 70.4329 37.9115 70.2051 36.7812C69.9772 35.651 69.6035 34.8034 69.084 34.2383C68.5645 33.6641 67.8672 33.377 66.9922 33.377C66.1172 33.377 65.4199 33.6641 64.9004 34.2383C64.39 34.8034 64.0208 35.651 63.793 36.7812C63.5742 37.9115 63.4648 39.3151 63.4648 40.9922Z" fill="#333333"/>
<rect x="113" width="36" height="36" rx="8" fill="#F3F3F3"/>
<path d="M138.07 10.93L136.66 12.34C138.1 13.79 139 15.79 139 18C139 22.42 135.42 26 131 26C126.58 26 123 22.42 123 18C123 13.92 126.05 10.56 130 10.07V12.09C127.16 12.57 125 15.03 125 18C125 21.31 127.69 24 131 24C134.31 24 137 21.31 137 18C137 16.34 136.33 14.84 135.24 13.76L133.83 15.17C134.55 15.9 135 16.9 135 18C135 20.21 133.21 22 131 22C128.79 22 127 20.21 127 18C127 16.14 128.28 14.59 130 14.14V16.28C129.4 16.63 129 17.26 129 18C129 19.1 129.9 20 131 20C132.1 20 133 19.1 133 18C133 17.26 132.6 16.62 132 16.28V8H131C125.48 8 121 12.48 121 18C121 23.52 125.48 28 131 28C136.52 28 141 23.52 141 18C141 15.24 139.88 12.74 138.07 10.93Z" fill="#666666"/>
</svg>
