<svg width="142" height="61" viewBox="0 0 142 61" fill="none" xmlns="http://www.w3.org/2000/svg">
<path opacity="0.5" d="M3.0127 3.86133C3.93392 3.86133 4.60612 4.05013 5.0293 4.42773C5.45247 4.80534 5.66406 5.33431 5.66406 6.01465C5.66406 6.32389 5.61523 6.61849 5.51758 6.89844C5.42318 7.17513 5.26693 7.4209 5.04883 7.63574C4.83073 7.84733 4.54264 8.01497 4.18457 8.13867C3.82975 8.26237 3.39193 8.32422 2.87109 8.32422H2.10938V11H0.9375V3.86133H3.0127ZM2.93457 4.83301H2.10938V7.34766H2.74902C3.11686 7.34766 3.42936 7.30534 3.68652 7.2207C3.94368 7.13281 4.139 6.99447 4.27246 6.80566C4.40592 6.61686 4.47266 6.36784 4.47266 6.05859C4.47266 5.64518 4.34733 5.33757 4.09668 5.13574C3.84928 4.93392 3.46191 4.83301 2.93457 4.83301ZM11.1328 11H7.08984V3.86133H11.1328V4.84766H8.26172V6.78613H10.9521V7.76758H8.26172V10.0088H11.1328V11ZM18.6328 11H17.1924L13.6963 5.30176H13.6523C13.6654 5.49382 13.6768 5.69727 13.6865 5.91211C13.6995 6.12695 13.7093 6.34831 13.7158 6.57617C13.7256 6.80404 13.7337 7.03516 13.7402 7.26953V11H12.6758V3.86133H14.1064L17.5977 9.52051H17.6318C17.6253 9.35449 17.6172 9.16406 17.6074 8.94922C17.5977 8.73438 17.5879 8.51302 17.5781 8.28516C17.5716 8.05404 17.5667 7.83105 17.5635 7.61621V3.86133H18.6328V11ZM26.3037 7.3623C26.3037 8.16634 26.154 8.83854 25.8545 9.37891C25.555 9.91602 25.1204 10.3213 24.5508 10.5947C23.9811 10.8649 23.2943 11 22.4902 11H20.5078V3.86133H22.7051C23.444 3.86133 24.082 3.99479 24.6191 4.26172C25.1562 4.52539 25.5713 4.91764 25.8643 5.43848C26.1572 5.95605 26.3037 6.59733 26.3037 7.3623ZM25.083 7.39648C25.083 6.81055 24.9902 6.32878 24.8047 5.95117C24.6224 5.57357 24.3522 5.29362 23.9941 5.11133C23.6393 4.92578 23.2015 4.83301 22.6807 4.83301H21.6797V10.0186H22.5098C23.3724 10.0186 24.0169 9.79883 24.4434 9.35938C24.8698 8.91992 25.083 8.26562 25.083 7.39648ZM27.8418 11V3.86133H29.0137V11H27.8418ZM36.8555 11H35.415L31.9189 5.30176H31.875C31.888 5.49382 31.8994 5.69727 31.9092 5.91211C31.9222 6.12695 31.932 6.34831 31.9385 6.57617C31.9482 6.80404 31.9564 7.03516 31.9629 7.26953V11H30.8984V3.86133H32.3291L35.8203 9.52051H35.8545C35.848 9.35449 35.8398 9.16406 35.8301 8.94922C35.8203 8.73438 35.8105 8.51302 35.8008 8.28516C35.7943 8.05404 35.7894 7.83105 35.7861 7.61621V3.86133H36.8555V11ZM41.6113 7.12305H44.2773V10.707C43.903 10.8307 43.5156 10.9268 43.1152 10.9951C42.7148 11.0635 42.2656 11.0977 41.7676 11.0977C41.0417 11.0977 40.4264 10.9544 39.9219 10.668C39.4206 10.3783 39.0397 9.95996 38.7793 9.41309C38.5189 8.86296 38.3887 8.20052 38.3887 7.42578C38.3887 6.68034 38.5335 6.03418 38.8232 5.4873C39.113 4.93717 39.5345 4.51237 40.0879 4.21289C40.6413 3.91016 41.3118 3.75879 42.0996 3.75879C42.487 3.75879 42.8613 3.79785 43.2227 3.87598C43.5872 3.95085 43.9209 4.05501 44.2236 4.18848L43.8135 5.15527C43.5726 5.04134 43.3024 4.94531 43.0029 4.86719C42.7035 4.78906 42.3926 4.75 42.0703 4.75C41.5592 4.75 41.1182 4.86068 40.7471 5.08203C40.3792 5.30339 40.096 5.61589 39.8975 6.01953C39.6989 6.41992 39.5996 6.89355 39.5996 7.44043C39.5996 7.97103 39.6794 8.43652 39.8389 8.83691C39.9984 9.2373 40.2474 9.5498 40.5859 9.77441C40.9277 9.99577 41.3688 10.1064 41.9092 10.1064C42.1794 10.1064 42.4089 10.0918 42.5977 10.0625C42.7865 10.0332 42.9606 10.0007 43.1201 9.96484V8.12402H41.6113V7.12305ZM50.5908 3.86133C51.2061 3.86133 51.7139 3.9362 52.1143 4.08594C52.5179 4.23568 52.8174 4.46354 53.0127 4.76953C53.2113 5.07552 53.3105 5.46452 53.3105 5.93652C53.3105 6.28809 53.2454 6.58757 53.1152 6.83496C52.985 7.08236 52.8141 7.28743 52.6025 7.4502C52.391 7.61296 52.1647 7.74316 51.9238 7.84082L53.9502 11H52.627L50.9033 8.13867H49.7559V11H48.584V3.86133H50.5908ZM50.5127 4.83789H49.7559V7.17188H50.5664C51.11 7.17188 51.5039 7.07096 51.748 6.86914C51.9954 6.66732 52.1191 6.36947 52.1191 5.97559C52.1191 5.56217 51.9873 5.26921 51.7236 5.09668C51.4632 4.92415 51.0596 4.83789 50.5127 4.83789ZM59.0137 11H54.9707V3.86133H59.0137V4.84766H56.1426V6.78613H58.833V7.76758H56.1426V10.0088H59.0137V11ZM65.8496 3.86133L63.3545 11H62.1143L59.6191 3.86133H60.8203L62.3242 8.33398C62.3698 8.46419 62.4186 8.62207 62.4707 8.80762C62.526 8.99316 62.5765 9.18034 62.6221 9.36914C62.6709 9.55794 62.7083 9.72559 62.7344 9.87207C62.7604 9.72559 62.7962 9.55794 62.8418 9.36914C62.8906 9.18034 62.9411 8.99316 62.9932 8.80762C63.0452 8.62207 63.0941 8.46257 63.1396 8.3291L64.6484 3.86133H65.8496ZM66.7871 11V3.86133H67.959V11H66.7871ZM73.8867 11H69.8438V3.86133H73.8867V4.84766H71.0156V6.78613H73.7061V7.76758H71.0156V10.0088H73.8867V11ZM83.8721 3.86133L82.0068 11H80.7275L79.5361 6.72266C79.5068 6.61849 79.4743 6.49479 79.4385 6.35156C79.4027 6.20833 79.3669 6.06185 79.3311 5.91211C79.2985 5.76237 79.2692 5.62565 79.2432 5.50195C79.2204 5.375 79.2041 5.27734 79.1943 5.20898C79.1878 5.27734 79.1732 5.37337 79.1504 5.49707C79.1276 5.62077 79.0999 5.75749 79.0674 5.90723C79.0381 6.05371 79.0055 6.2002 78.9697 6.34668C78.9339 6.48991 78.9014 6.61686 78.8721 6.72754L77.7002 11H76.4258L74.5654 3.86133H75.7422L76.7725 8.0459C76.805 8.17936 76.8376 8.32422 76.8701 8.48047C76.9059 8.63346 76.9385 8.78809 76.9678 8.94434C77.0003 9.10059 77.0296 9.25358 77.0557 9.40332C77.0817 9.5498 77.1029 9.68327 77.1191 9.80371C77.1354 9.68001 77.1566 9.54329 77.1826 9.39355C77.2087 9.24056 77.2363 9.08594 77.2656 8.92969C77.2982 8.77018 77.3307 8.61719 77.3633 8.4707C77.3991 8.32422 77.4349 8.19238 77.4707 8.0752L78.6328 3.86133H79.7754L80.9619 8.08984C80.9977 8.21029 81.0319 8.34538 81.0645 8.49512C81.1003 8.64486 81.1344 8.79785 81.167 8.9541C81.1995 9.11035 81.2288 9.26172 81.2549 9.4082C81.2809 9.55469 81.3021 9.68652 81.3184 9.80371C81.3411 9.64421 81.3704 9.46191 81.4062 9.25684C81.4421 9.05176 81.4827 8.84342 81.5283 8.63184C81.5739 8.42025 81.6195 8.22493 81.665 8.0459L82.6904 3.86133H83.8721ZM89.0039 9.05664C89.0039 9.47982 88.8997 9.8444 88.6914 10.1504C88.4863 10.4564 88.1901 10.6908 87.8027 10.8535C87.4186 11.0163 86.9596 11.0977 86.4258 11.0977C86.1654 11.0977 85.9163 11.083 85.6787 11.0537C85.4411 11.0244 85.2165 10.9821 85.0049 10.9268C84.7965 10.8682 84.6061 10.7982 84.4336 10.7168V9.61328C84.7233 9.74023 85.0472 9.85579 85.4053 9.95996C85.7633 10.0609 86.1279 10.1113 86.499 10.1113C86.8018 10.1113 87.0524 10.0723 87.251 9.99414C87.4528 9.91276 87.6025 9.79883 87.7002 9.65234C87.7979 9.5026 87.8467 9.32845 87.8467 9.12988C87.8467 8.91829 87.7897 8.73926 87.6758 8.59277C87.5618 8.44629 87.3893 8.31283 87.1582 8.19238C86.9303 8.06868 86.6439 7.93685 86.2988 7.79688C86.0645 7.70247 85.8398 7.59505 85.625 7.47461C85.4134 7.35417 85.2246 7.21257 85.0586 7.0498C84.8926 6.88704 84.7607 6.69499 84.6631 6.47363C84.5687 6.24902 84.5215 5.98535 84.5215 5.68262C84.5215 5.27897 84.6175 4.93392 84.8096 4.64746C85.0049 4.361 85.2783 4.14128 85.6299 3.98828C85.9847 3.83529 86.3981 3.75879 86.8701 3.75879C87.2445 3.75879 87.596 3.79785 87.9248 3.87598C88.2568 3.9541 88.5824 4.06478 88.9014 4.20801L88.5303 5.15039C88.2373 5.02995 87.9525 4.93392 87.6758 4.8623C87.4023 4.79069 87.1224 4.75488 86.8359 4.75488C86.5885 4.75488 86.3786 4.79232 86.2061 4.86719C86.0335 4.94206 85.9017 5.04785 85.8105 5.18457C85.7227 5.31803 85.6787 5.47754 85.6787 5.66309C85.6787 5.87142 85.7292 6.0472 85.8301 6.19043C85.9342 6.3304 86.0938 6.45898 86.3086 6.57617C86.5267 6.69336 86.8066 6.82357 87.1484 6.9668C87.5423 7.12956 87.876 7.30046 88.1494 7.47949C88.4261 7.65853 88.6377 7.87337 88.7842 8.12402C88.9307 8.37142 89.0039 8.68229 89.0039 9.05664Z" fill="#101010"/>
<path d="M14.0273 35.5781C14.0273 36.4805 13.8451 37.2643 13.4805 37.9297C13.1159 38.5951 12.6146 39.1419 11.9766 39.5703C11.3477 39.9896 10.6185 40.2904 9.78906 40.4727V40.5684C11.3841 40.7689 12.5872 41.2702 13.3984 42.0723C14.2188 42.8743 14.6289 43.9362 14.6289 45.2578C14.6289 46.4154 14.3509 47.4499 13.7949 48.3613C13.2389 49.2637 12.3867 49.9746 11.2383 50.4941C10.0898 51.0137 8.61328 51.2734 6.80859 51.2734C5.72396 51.2734 4.7168 51.1868 3.78711 51.0137C2.86654 50.8405 1.99154 50.5625 1.16211 50.1797V47.3223C2.00977 47.7415 2.91211 48.0651 3.86914 48.293C4.82617 48.5208 5.73307 48.6348 6.58984 48.6348C8.25781 48.6348 9.44727 48.3249 10.1582 47.7051C10.8691 47.0762 11.2246 46.2103 11.2246 45.1074C11.2246 44.3965 11.0378 43.8132 10.6641 43.3574C10.2995 42.9017 9.72982 42.5599 8.95508 42.332C8.18945 42.1042 7.20052 41.9902 5.98828 41.9902H4.22461V39.4062H6.00195C7.15951 39.4062 8.08919 39.2695 8.79102 38.9961C9.49284 38.7135 9.9987 38.3262 10.3086 37.834C10.6276 37.3418 10.7871 36.7676 10.7871 36.1113C10.7871 35.2546 10.5091 34.5892 9.95312 34.1152C9.39714 33.6322 8.57227 33.3906 7.47852 33.3906C6.80404 33.3906 6.1888 33.4681 5.63281 33.623C5.08594 33.778 4.58008 33.974 4.11523 34.2109C3.65039 34.4479 3.20833 34.7031 2.78906 34.9766L1.24414 32.748C2.00065 32.1829 2.90299 31.7044 3.95117 31.3125C4.99935 30.9206 6.2207 30.7246 7.61523 30.7246C9.66602 30.7246 11.2474 31.1667 12.3594 32.0508C13.4714 32.9258 14.0273 34.1016 14.0273 35.5781Z" fill="#333333"/>
<rect x="106" width="36" height="36" rx="8" fill="#F3F3F3"/>
<path d="M132 8H116C114.9 8 114 8.9 114 10V28L118 24H132C133.1 24 134 23.1 134 22V10C134 8.9 133.1 8 132 8ZM132 22H117.17L116 23.17V10H132V22Z" fill="#666666"/>
<path d="M124 21L125.57 17.57L129 16L125.57 14.43L124 11L122.43 14.43L119 16L122.43 17.57L124 21Z" fill="#666666"/>
</svg>
