<svg width="62" height="24" viewBox="0 0 62 24" fill="none" xmlns="http://www.w3.org/2000/svg">
<rect y="0.5" width="62" height="23" rx="4" fill="#F04F6D" fill-opacity="0.2"/>
<path d="M11.0127 8.36133C11.9339 8.36133 12.6061 8.55013 13.0293 8.92773C13.4525 9.30534 13.6641 9.83431 13.6641 10.5146C13.6641 10.8239 13.6152 11.1185 13.5176 11.3984C13.4232 11.6751 13.2669 11.9209 13.0488 12.1357C12.8307 12.3473 12.5426 12.515 12.1846 12.6387C11.8298 12.7624 11.3919 12.8242 10.8711 12.8242H10.1094V15.5H8.9375V8.36133H11.0127ZM10.9346 9.33301H10.1094V11.8477H10.749C11.1169 11.8477 11.4294 11.8053 11.6865 11.7207C11.9437 11.6328 12.139 11.4945 12.2725 11.3057C12.4059 11.1169 12.4727 10.8678 12.4727 10.5586C12.4727 10.1452 12.3473 9.83757 12.0967 9.63574C11.8493 9.43392 11.4619 9.33301 10.9346 9.33301ZM19.1328 15.5H15.0898V8.36133H19.1328V9.34766H16.2617V11.2861H18.9521V12.2676H16.2617V14.5088H19.1328V15.5ZM26.6328 15.5H25.1924L21.6963 9.80176H21.6523C21.6654 9.99382 21.6768 10.1973 21.6865 10.4121C21.6995 10.627 21.7093 10.8483 21.7158 11.0762C21.7256 11.304 21.7337 11.5352 21.7402 11.7695V15.5H20.6758V8.36133H22.1064L25.5977 14.0205H25.6318C25.6253 13.8545 25.6172 13.6641 25.6074 13.4492C25.5977 13.2344 25.5879 13.013 25.5781 12.7852C25.5716 12.554 25.5667 12.3311 25.5635 12.1162V8.36133H26.6328V15.5ZM34.3037 11.8623C34.3037 12.6663 34.154 13.3385 33.8545 13.8789C33.555 14.416 33.1204 14.8213 32.5508 15.0947C31.9811 15.3649 31.2943 15.5 30.4902 15.5H28.5078V8.36133H30.7051C31.444 8.36133 32.082 8.49479 32.6191 8.76172C33.1562 9.02539 33.5713 9.41764 33.8643 9.93848C34.1572 10.4561 34.3037 11.0973 34.3037 11.8623ZM33.083 11.8965C33.083 11.3105 32.9902 10.8288 32.8047 10.4512C32.6224 10.0736 32.3522 9.79362 31.9941 9.61133C31.6393 9.42578 31.2015 9.33301 30.6807 9.33301H29.6797V14.5186H30.5098C31.3724 14.5186 32.0169 14.2988 32.4434 13.8594C32.8698 13.4199 33.083 12.7656 33.083 11.8965ZM35.8418 15.5V8.36133H37.0137V15.5H35.8418ZM44.8555 15.5H43.415L39.9189 9.80176H39.875C39.888 9.99382 39.8994 10.1973 39.9092 10.4121C39.9222 10.627 39.932 10.8483 39.9385 11.0762C39.9482 11.304 39.9564 11.5352 39.9629 11.7695V15.5H38.8984V8.36133H40.3291L43.8203 14.0205H43.8545C43.848 13.8545 43.8398 13.6641 43.8301 13.4492C43.8203 13.2344 43.8105 13.013 43.8008 12.7852C43.7943 12.554 43.7894 12.3311 43.7861 12.1162V8.36133H44.8555V15.5ZM49.6113 11.623H52.2773V15.207C51.903 15.3307 51.5156 15.4268 51.1152 15.4951C50.7148 15.5635 50.2656 15.5977 49.7676 15.5977C49.0417 15.5977 48.4264 15.4544 47.9219 15.168C47.4206 14.8783 47.0397 14.46 46.7793 13.9131C46.5189 13.363 46.3887 12.7005 46.3887 11.9258C46.3887 11.1803 46.5335 10.5342 46.8232 9.9873C47.113 9.43717 47.5345 9.01237 48.0879 8.71289C48.6413 8.41016 49.3118 8.25879 50.0996 8.25879C50.487 8.25879 50.8613 8.29785 51.2227 8.37598C51.5872 8.45085 51.9209 8.55501 52.2236 8.68848L51.8135 9.65527C51.5726 9.54134 51.3024 9.44531 51.0029 9.36719C50.7035 9.28906 50.3926 9.25 50.0703 9.25C49.5592 9.25 49.1182 9.36068 48.7471 9.58203C48.3792 9.80339 48.096 10.1159 47.8975 10.5195C47.6989 10.9199 47.5996 11.3936 47.5996 11.9404C47.5996 12.471 47.6794 12.9365 47.8389 13.3369C47.9984 13.7373 48.2474 14.0498 48.5859 14.2744C48.9277 14.4958 49.3688 14.6064 49.9092 14.6064C50.1794 14.6064 50.4089 14.5918 50.5977 14.5625C50.7865 14.5332 50.9606 14.5007 51.1201 14.4648V12.624H49.6113V11.623Z" fill="#F04F6D"/>
</svg>
