<svg width="84" height="21" viewBox="0 0 84 21" fill="none" xmlns="http://www.w3.org/2000/svg">
<g opacity="0.7">
<path d="M12.7133 5.78671L11.7733 6.72671C12.7333 7.69337 13.3333 9.02671 13.3333 10.5C13.3333 13.4467 10.9466 15.8334 7.99998 15.8334C5.05331 15.8334 2.66665 13.4467 2.66665 10.5C2.66665 7.78004 4.69998 5.54004 7.33331 5.21337V6.56004C5.43998 6.88004 3.99998 8.52004 3.99998 10.5C3.99998 12.7067 5.79331 14.5 7.99998 14.5C10.2066 14.5 12 12.7067 12 10.5C12 9.39337 11.5533 8.39337 10.8266 7.67337L9.88665 8.61337C10.3666 9.10004 10.6666 9.76671 10.6666 10.5C10.6666 11.9734 9.47331 13.1667 7.99998 13.1667C6.52665 13.1667 5.33331 11.9734 5.33331 10.5C5.33331 9.26004 6.18665 8.22671 7.33331 7.92671V9.35337C6.93331 9.58671 6.66665 10.0067 6.66665 10.5C6.66665 11.2334 7.26665 11.8334 7.99998 11.8334C8.73331 11.8334 9.33331 11.2334 9.33331 10.5C9.33331 10.0067 9.06665 9.58004 8.66665 9.35337V3.83337H7.99998C4.31998 3.83337 1.33331 6.82004 1.33331 10.5C1.33331 14.18 4.31998 17.1667 7.99998 17.1667C11.68 17.1667 14.6666 14.18 14.6666 10.5C14.6666 8.66004 13.92 6.99337 12.7133 5.78671Z" fill="#181818"/>
<path opacity="0.7" d="M28.748 15.5H26.7803V7.85742H24.2603V6.21973H31.2681V7.85742H28.748V15.5ZM35.6604 6.21973C36.5025 6.21973 37.1965 6.32129 37.7424 6.52441C38.2926 6.72754 38.7009 7.03434 38.9675 7.44482C39.2341 7.85531 39.3674 8.3737 39.3674 9C39.3674 9.42318 39.287 9.79346 39.1262 10.1108C38.9654 10.4282 38.7538 10.6969 38.4914 10.917C38.2291 11.137 37.9455 11.3169 37.6409 11.4565L40.3704 15.5H38.1868L35.9714 11.939H34.9241V15.5H32.9563V6.21973H35.6604ZM35.5207 7.83203H34.9241V10.3394H35.5588C36.2105 10.3394 36.676 10.2314 36.9553 10.0156C37.2388 9.79557 37.3806 9.47396 37.3806 9.05078C37.3806 8.61068 37.2283 8.29753 36.9236 8.11133C36.6231 7.92513 36.1555 7.83203 35.5207 7.83203ZM47.4795 15.5L46.8066 13.291H43.4233L42.7505 15.5H40.6304L43.9057 6.18164H46.3115L49.5996 15.5H47.4795ZM46.3369 11.6406L45.664 9.48242C45.6217 9.33854 45.5646 9.15446 45.4927 8.93018C45.4249 8.70166 45.3551 8.47103 45.2832 8.23828C45.2155 8.0013 45.1605 7.79606 45.1181 7.62256C45.0758 7.79606 45.0166 8.01188 44.9404 8.27002C44.8685 8.52393 44.7986 8.76514 44.7309 8.99365C44.6632 9.22217 44.6146 9.38509 44.5849 9.48242L43.9184 11.6406H46.3369ZM54.9758 7.72412C54.5992 7.72412 54.2649 7.79818 53.9729 7.94629C53.6851 8.09017 53.4418 8.29964 53.2429 8.57471C53.0482 8.84977 52.9001 9.18197 52.7986 9.57129C52.697 9.96061 52.6462 10.3986 52.6462 10.8853C52.6462 11.5412 52.7266 12.1019 52.8874 12.5674C53.0525 13.0286 53.3064 13.382 53.6491 13.6274C53.9919 13.8687 54.4341 13.9893 54.9758 13.9893C55.3524 13.9893 55.7291 13.9469 56.1057 13.8623C56.4865 13.7777 56.8991 13.6571 57.3435 13.5005V15.1509C56.933 15.3201 56.5289 15.4408 56.1311 15.5127C55.7333 15.5889 55.2868 15.627 54.7917 15.627C53.8353 15.627 53.0482 15.4302 52.4304 15.0366C51.8168 14.6388 51.3619 14.0845 51.0656 13.3735C50.7694 12.6584 50.6213 11.8247 50.6213 10.8726C50.6213 10.1701 50.7165 9.52686 50.907 8.94287C51.0974 8.35889 51.3767 7.85319 51.7448 7.42578C52.113 6.99837 52.5679 6.66829 53.1096 6.43555C53.6513 6.2028 54.2733 6.08643 54.9758 6.08643C55.4371 6.08643 55.8983 6.14567 56.3596 6.26416C56.8251 6.37842 57.2694 6.53711 57.6926 6.74023L57.0578 8.33984C56.7108 8.1748 56.3617 8.03092 56.0105 7.9082C55.6592 7.78548 55.3143 7.72412 54.9758 7.72412ZM67.0488 15.5H64.8144L62.3833 11.5898L61.5517 12.1865V15.5H59.5839V6.21973H61.5517V10.4663C61.6829 10.2843 61.812 10.1024 61.9389 9.92041C62.0659 9.73844 62.1949 9.55648 62.3261 9.37451L64.8398 6.21973H67.0234L63.7861 10.3267L67.0488 15.5ZM73.8215 15.5H68.4768V6.21973H73.8215V7.83203H70.4445V9.86963H73.5866V11.4819H70.4445V13.875H73.8215V15.5ZM78.728 6.21973C79.5701 6.21973 80.2641 6.32129 80.81 6.52441C81.3601 6.72754 81.7685 7.03434 82.0351 7.44482C82.3017 7.85531 82.435 8.3737 82.435 9C82.435 9.42318 82.3546 9.79346 82.1938 10.1108C82.033 10.4282 81.8214 10.6969 81.559 10.917C81.2967 11.137 81.0131 11.3169 80.7084 11.4565L83.4379 15.5H81.2543L79.039 11.939H77.9916V15.5H76.0239V6.21973H78.728ZM78.5883 7.83203H77.9916V10.3394H78.6264C79.2781 10.3394 79.7436 10.2314 80.0229 10.0156C80.3064 9.79557 80.4482 9.47396 80.4482 9.05078C80.4482 8.61068 80.2958 8.29753 79.9912 8.11133C79.6907 7.92513 79.2231 7.83203 78.5883 7.83203Z" fill="#181818"/>
</g>
</svg>
